<?xml version="1.0" encoding="UTF-8"?>
<svg version="1.1" xmlns="http://www.w3.org/2000/svg" width="166" height="170">
<path d="M0 0 C14.19045476 13.84109468 23.67328334 31.87368902 24.140625 51.9140625 C24.15246376 53.70960819 24.15886724 55.50519699 24.16015625 57.30078125 C24.17240234 58.18701172 24.18464844 59.07324219 24.19726562 59.98632812 C24.24364543 81.18189898 15.27904074 99.35317864 0.6328125 114.390625 C-9.43690019 123.93808354 -20.77077104 130.05273623 -34.02734375 133.98828125 C-35.23390625 134.35759766 -35.23390625 134.35759766 -36.46484375 134.734375 C-56.3487214 139.73986503 -77.59454271 134.42925279 -95.15234375 124.80078125 C-103.18427057 119.93262401 -110.48676963 113.60657067 -116.02734375 105.98828125 C-116.02734375 105.32828125 -116.02734375 104.66828125 -116.02734375 103.98828125 C-116.68734375 103.98828125 -117.34734375 103.98828125 -118.02734375 103.98828125 C-130.36713113 86.29922643 -134.02584703 66.04294158 -131.68359375 44.8828125 C-131.23658161 42.53972387 -130.68190352 40.28129882 -130.02734375 37.98828125 C-129.83269531 37.19808594 -129.63804687 36.40789062 -129.4375 35.59375 C-126.38776613 24.13469079 -120.67807789 14.92446263 -113.02734375 5.98828125 C-112.40859375 5.16972656 -111.78984375 4.35117187 -111.15234375 3.5078125 C-99.68383792 -10.08995636 -80.94945143 -18.34463865 -63.65234375 -20.69921875 C-40.18629648 -22.67607765 -17.47005839 -16.08716072 0 0 Z M-102.02734375 7.98828125 C-102.70925781 8.61734375 -103.39117187 9.24640625 -104.09375 9.89453125 C-113.48693739 19.45315638 -119.82884197 32.856159 -122.02734375 45.98828125 C-122.2078125 46.98601562 -122.38828125 47.98375 -122.57421875 49.01171875 C-125.32001427 67.04875485 -119.28560998 84.57840322 -109.08984375 99.2734375 C-106.39724798 102.81766867 -103.57517156 106.26508369 -100.02734375 108.98828125 C-99.36734375 108.98828125 -98.70734375 108.98828125 -98.02734375 108.98828125 C-98.02734375 109.64828125 -98.02734375 110.30828125 -98.02734375 110.98828125 C-96.37734375 111.64828125 -94.72734375 112.30828125 -93.02734375 112.98828125 C-93.02734375 113.64828125 -93.02734375 114.30828125 -93.02734375 114.98828125 C-75.50330026 124.60085364 -57.31313987 129.37644611 -37.40234375 124.73828125 C-35.59876372 124.19289488 -33.80558758 123.6113351 -32.02734375 122.98828125 C-31.15980469 122.69824219 -30.29226562 122.40820312 -29.3984375 122.109375 C-13.05706034 116.14664349 1.03141662 102.85091302 8.34765625 87.17578125 C9.24316931 85.12210464 10.1200223 83.06012743 10.97265625 80.98828125 C11.5140625 79.71017578 11.5140625 79.71017578 12.06640625 78.40625 C17.86555695 62.93351603 15.84659089 45.10688276 9.39453125 30.18359375 C0.85226984 11.71622493 -13.30961851 -0.57410793 -32.11328125 -7.9765625 C-56.28890197 -16.56441704 -83.59951558 -9.33987544 -102.02734375 7.98828125 Z " fill="#BB3033" transform="translate(136.02734375,30.01171875)"/>
<path d="M0 0 C3.5625 0.3125 3.5625 0.3125 5.4375 1.5 C6.82479035 3.7350789 7.21237213 5.72155378 7.5625 8.3125 C9.2125 7.6525 10.8625 6.9925 12.5625 6.3125 C14.38744959 8.19757973 16.19694398 10.09416755 18 12 C18.51626953 12.53044922 19.03253906 13.06089844 19.56445312 13.60742188 C21.73559674 15.9204703 23.43051044 17.9995495 24.66796875 20.93359375 C24.5625 23.3125 24.5625 23.3125 22.8671875 25.5234375 C22.06539063 26.23757812 21.26359375 26.95171875 20.4375 27.6875 C16.52775154 31.34107149 13.42260418 34.79169017 10.5625 39.3125 C10.5625 39.9725 10.5625 40.6325 10.5625 41.3125 C4.6225 41.6425 -1.3175 41.9725 -7.4375 42.3125 C-7.7675 47.2625 -8.0975 52.2125 -8.4375 57.3125 C-9.0975 57.3125 -9.7575 57.3125 -10.4375 57.3125 C-10.4375 57.9725 -10.4375 58.6325 -10.4375 59.3125 C-11.87109375 60.7578125 -11.87109375 60.7578125 -13.875 62.4375 C-16.25032001 64.43377958 -18.56173729 66.43221209 -20.796875 68.5859375 C-21.56515625 69.32070312 -22.3334375 70.05546875 -23.125 70.8125 C-23.83011719 71.5034375 -24.53523438 72.194375 -25.26171875 72.90625 C-27.4375 74.3125 -27.4375 74.3125 -29.84375 74.3984375 C-33.47962123 72.87619021 -35.70443604 70.33991872 -38.25 67.4375 C-38.75208984 66.89480469 -39.25417969 66.35210937 -39.77148438 65.79296875 C-43.4375 61.71296769 -43.4375 61.71296769 -43.4375 58.3125 C-45.08083504 57.27460419 -46.74993867 56.27682076 -48.4375 55.3125 C-50.60301116 52.06423326 -50.98906953 51.08155843 -50.4375 47.3125 C-48.35433686 44.53494915 -47.05078151 43.47975859 -43.6875 42.5625 C-42.945 42.48 -42.2025 42.3975 -41.4375 42.3125 C-42.0975 41.6525 -42.7575 40.9925 -43.4375 40.3125 C-43.32675275 37.10082963 -42.16350008 36.00337188 -40 33.5625 C-37.4375 31.3125 -37.4375 31.3125 -35.4375 31.3125 C-35.4375 30.6525 -35.4375 29.9925 -35.4375 29.3125 C-31.46314103 25.33814103 -31.46314103 25.33814103 -27.9375 25.25 C-24.57790885 26.67782624 -22.90950805 28.61053772 -20.4375 31.3125 C-19.05044128 32.75846855 -17.65409087 34.19556453 -16.25 35.625 C-15.57582031 36.32238281 -14.90164062 37.01976562 -14.20703125 37.73828125 C-12.58319097 39.53405697 -12.58319097 39.53405697 -10.4375 39.3125 C-10.4375 38.6525 -10.4375 37.9925 -10.4375 37.3125 C-11.0975 37.3125 -11.7575 37.3125 -12.4375 37.3125 C-13.0253125 36.2915625 -13.0253125 36.2915625 -13.625 35.25 C-15.65778193 31.95549136 -18.02548958 29.61380883 -20.81640625 26.9609375 C-22.4375 25.3125 -22.4375 25.3125 -24.4375 22.3125 C-23.9430051 17.7373034 -20.7922013 15.11578952 -17.6875 12 C-17.1615625 11.43732422 -16.635625 10.87464844 -16.09375 10.29492188 C-14.515625 8.69921875 -14.515625 8.69921875 -11.4375 6.3125 C-8.546875 6.45703125 -8.546875 6.45703125 -6.4375 7.3125 C-6.251875 6.136875 -6.251875 6.136875 -6.0625 4.9375 C-5.09367987 0.86845544 -4.15978436 0.37816221 0 0 Z M-2.4375 13.3125 C-2.1075 13.9725 -1.7775 14.6325 -1.4375 15.3125 C-0.4475 15.3125 0.5425 15.3125 1.5625 15.3125 C1.5625 14.6525 1.5625 13.9925 1.5625 13.3125 C0.2425 13.3125 -1.0775 13.3125 -2.4375 13.3125 Z M-36.4375 48.3125 C-36.1075 49.3025 -35.7775 50.2925 -35.4375 51.3125 C-35.4375 50.3225 -35.4375 49.3325 -35.4375 48.3125 C-35.7675 48.3125 -36.0975 48.3125 -36.4375 48.3125 Z " fill="#FAC207" transform="translate(81.4375,37.6875)"/>
<path d="M0 0 C1.32 0 2.64 0 4 0 C4 0.66 4 1.32 4 2 C4.66 2 5.32 2 6 2 C7.62109375 3.64453125 7.62109375 3.64453125 9.4375 5.8125 C11.93832904 8.80010607 11.93832904 8.80010607 14.72265625 11.51171875 C16 13 16 13 16 17 C17.4540625 17.5259375 17.4540625 17.5259375 18.9375 18.0625 C22 20 22 20 23.1875 23.375 C23 27 23 27 20.6875 29.8125 C19.800625 30.534375 18.91375 31.25625 18 32 C15.86778619 33.7456973 15.86778619 33.7456973 15.703125 35.76171875 C14.62966085 39.17891295 12.2200022 41.33282417 9.75 43.8125 C9.27175781 44.32748047 8.79351562 44.84246094 8.30078125 45.37304688 C6.859375 46.83203125 6.859375 46.83203125 4 49 C0.15336398 48.87823598 -2.18817815 47.60353875 -5 45 C-5 44.34 -5 43.68 -5 43 C-5.56332031 42.73574219 -6.12664062 42.47148438 -6.70703125 42.19921875 C-12.50756208 39.16555101 -16.79129979 35.84499075 -19.40234375 29.69921875 C-20.2329955 25.44717979 -20.62688859 22.03660544 -19 18 C-14.81640318 12.31356989 -9.29480953 7.83446817 -3.8034668 3.45776367 C-1.90667792 1.97695345 -1.90667792 1.97695345 0 0 Z M8 23 C8 26 8 26 8 26 Z " fill="#FBC204" transform="translate(110,63)"/>
<path d="M0 0 C1.14726563 0.01546875 2.29453125 0.0309375 3.4765625 0.046875 C6.375 0.25 6.375 0.25 8.375 1.25 C8.375 1.91 8.375 2.57 8.375 3.25 C9.035 3.25 9.695 3.25 10.375 3.25 C11.92578125 4.82421875 11.92578125 4.82421875 13.6875 6.9375 C15.81144684 9.44802294 17.93001344 11.85823421 20.3125 14.125 C22.375 16.25 22.375 16.25 22.375 18.25 C23.035 18.25 23.695 18.25 24.375 18.25 C23.98668175 23.19879998 21.48815727 25.71172355 18.0625 29 C17.57587891 29.49371094 17.08925781 29.98742187 16.58789062 30.49609375 C14.01551907 33.02345746 12.0439998 34.86654159 8.375 35.25 C8.045 34.59 7.715 33.93 7.375 33.25 C7.106875 34.19875 6.83875 35.1475 6.5625 36.125 C5.375 39.25 5.375 39.25 2.375 41.25 C-0.625 41.625 -0.625 41.625 -3.625 41.25 C-6.092339 39.0293949 -6.58652446 37.81430797 -6.8125 34.5 C-6.7196875 33.38625 -6.7196875 33.38625 -6.625 32.25 C-7.285 32.25 -7.945 32.25 -8.625 32.25 C-8.625 32.91 -8.625 33.57 -8.625 34.25 C-10.275 34.25 -11.925 34.25 -13.625 34.25 C-14.12 32.765 -14.12 32.765 -14.625 31.25 C-15.285 31.25 -15.945 31.25 -16.625 31.25 C-18.31640625 29.640625 -18.31640625 29.640625 -20.1875 27.5 C-20.80753906 26.80390625 -21.42757812 26.1078125 -22.06640625 25.390625 C-24.60990131 21.89730346 -24.60990131 21.89730346 -24.625 19.25 C-22.7890625 16.7421875 -22.7890625 16.7421875 -20.25 14.125 C-17.05815621 10.95677639 -17.05815621 10.95677639 -14.625 7.25 C-13.965 7.25 -13.305 7.25 -12.625 7.25 C-12.3775 6.651875 -12.13 6.05375 -11.875 5.4375 C-8.96165767 0.33915092 -5.62758251 -0.12703347 0 0 Z M-1.625 26.25 C-1.295 26.91 -0.965 27.57 -0.625 28.25 C-0.295 27.59 0.035 26.93 0.375 26.25 C-0.285 26.25 -0.945 26.25 -1.625 26.25 Z " fill="#FBC205" transform="translate(81.625,96.75)"/>
<path d="M0 0 C16.64771751 -0.58157965 31.87516353 5.41508511 44.48828125 16.17578125 C47.46521367 19.02352604 49.57198365 21.52554878 51.55859375 25.15625 C51.37109375 28.09375 51.37109375 28.09375 50.55859375 30.15625 C47.87109375 30.96875 47.87109375 30.96875 44.55859375 31.15625 C42.12109375 29.09375 42.12109375 29.09375 39.55859375 26.15625 C34.72459546 21.49272017 29.55445397 18.15418011 23.55859375 15.15625 C22.93726562 14.84558594 22.3159375 14.53492188 21.67578125 14.21484375 C12.18188719 9.80848485 -0.91503448 9.64791585 -11.015625 12.25390625 C-16.71768949 14.37496406 -22.07041093 17.32025745 -27.44140625 20.15625 C-28.77258212 20.82721425 -30.10478897 21.49619208 -31.44140625 22.15625 C-31.44140625 22.81625 -31.44140625 23.47625 -31.44140625 24.15625 C-33.06115184 25.86855248 -34.73730085 27.52788262 -36.44140625 29.15625 C-37.26640625 30.105 -38.09140625 31.05375 -38.94140625 32.03125 C-41.44140625 34.15625 -41.44140625 34.15625 -44.19140625 34.03125 C-46.44140625 33.15625 -46.44140625 33.15625 -47.44140625 32.15625 C-47.87378928 28.44935642 -47.80177143 26.68878965 -45.68359375 23.55859375 C-32.6628327 10.00067259 -19.19293476 1.22834782 0 0 Z " fill="#BC292B" transform="translate(80.44140625,25.84375)"/>
<path d="M0 0 C3.75 0.1875 3.75 0.1875 7 1 C7.875 3 7.875 3 8 6 C6.36725157 8.9788311 4.22845925 11.44900059 2 14 C1.5153125 14.59039062 1.030625 15.18078125 0.53125 15.7890625 C-9.5731089 27.07913698 -25.27492486 32.75610096 -40 34 C-57.67308051 34.213443 -73.03983834 28.0540457 -85.90625 16.1484375 C-90.92138765 11.00230745 -90.92138765 11.00230745 -91.25 6.8125 C-91 4 -91 4 -90 3 C-87.25 2.62109375 -87.25 2.62109375 -84 3 C-81.5 5.16015625 -81.5 5.16015625 -79 8.0625 C-70.48445798 17.31923719 -59.27580711 22.40227496 -46.7265625 23.2109375 C-34.19101096 23.56443461 -21.10056423 20.76221014 -11.203125 12.5 C-10.10439972 11.36249618 -9.04634833 10.18586144 -8 9 C-7.34 9 -6.68 9 -6 9 C-5.62875 8.1646875 -5.62875 8.1646875 -5.25 7.3125 C-3.69596313 4.4375318 -2.39093159 2.26169205 0 0 Z " fill="#B8393D" transform="translate(124,115)"/>
<path d="M0 0 C3.75 0.1875 3.75 0.1875 7 1 C7.875 3 7.875 3 8 6 C6.36725157 8.9788311 4.22845925 11.44900059 2 14 C1.27296875 14.88558594 1.27296875 14.88558594 0.53125 15.7890625 C-9.53034822 27.03135847 -25.30467997 32.84418831 -40 34 C-44.36529877 33.88102959 -48.66575913 33.52493261 -53 33 C-53 32.67 -53 32.34 -53 32 C-39.635 31.01 -39.635 31.01 -26 30 C-26.66 28.68 -27.32 27.36 -28 26 C-29.65 26.66 -31.3 27.32 -33 28 C-33.33 27.01 -33.66 26.02 -34 25 C-34.66 24.34 -35.32 23.68 -36 23 C-35.34515625 22.85304687 -34.6903125 22.70609375 -34.015625 22.5546875 C-24.22145963 20.14764686 -14.79393178 16.69978936 -8 9 C-7.34 9 -6.68 9 -6 9 C-5.7525 8.443125 -5.505 7.88625 -5.25 7.3125 C-3.69596313 4.4375318 -2.39093159 2.26169205 0 0 Z " fill="#B94345" transform="translate(124,115)"/>
<path d="M0 0 C1.87109375 0.23828125 1.87109375 0.23828125 4 1 C11.39777954 12.43293201 11.46025532 27.87420026 11 41 C10.071875 40.7215625 10.071875 40.7215625 9.125 40.4375 C6.95839822 39.76313824 6.95839822 39.76313824 5 41 C4.27840576 42.64363134 3.60648579 44.31050386 3 46 C2.67 46 2.34 46 2 46 C1.96132812 44.329375 1.96132812 44.329375 1.921875 42.625 C1.56129695 31.86815012 -0.10593306 22.35834792 -3 12 C-3.35237001 10.337254 -3.69427187 8.67195072 -4 7 C-1.525 7.495 -1.525 7.495 1 8 C0.67 5.36 0.34 2.72 0 0 Z " fill="#BC2628" transform="translate(149,52)"/>
<path d="M0 0 C1.32 0 2.64 0 4 0 C4 0.66 4 1.32 4 2 C4.66 2 5.32 2 6 2 C7.62109375 3.64453125 7.62109375 3.64453125 9.4375 5.8125 C11.93832904 8.80010607 11.93832904 8.80010607 14.72265625 11.51171875 C16 13 16 13 16 17 C17.4540625 17.5259375 17.4540625 17.5259375 18.9375 18.0625 C22 20 22 20 23.1875 23.375 C23 27 23 27 20.6875 29.8125 C19.800625 30.534375 18.91375 31.25625 18 32 C15.86778619 33.7456973 15.86778619 33.7456973 15.703125 35.76171875 C14.62966085 39.17891295 12.2200022 41.33282417 9.75 43.8125 C9.27175781 44.32748047 8.79351562 44.84246094 8.30078125 45.37304688 C6.859375 46.83203125 6.859375 46.83203125 4 49 C1.265625 49.01171875 1.265625 49.01171875 -1 48 C-1.66 47.01 -2.32 46.02 -3 45 C-1.02 45.66 0.96 46.32 3 47 C3 46.01 3 45.02 3 44 C3.99 44 4.98 44 6 44 C6.33 42.35 6.66 40.7 7 39 C9.31 38.34 11.62 37.68 14 37 C12.33911848 34.02789623 10.57545154 31.46403396 8.3125 28.9375 C6 26 6 26 6 22 C7.32 21.67 8.64 21.34 10 21 C9.505 14.565 9.505 14.565 9 8 C7.68 7.67 6.36 7.34 5 7 C5 6.34 5 5.68 5 5 C3.68 4.67 2.36 4.34 1 4 C1 4.66 1 5.32 1 6 C-1.64 6.66 -4.28 7.32 -7 8 C-6.02133662 6.85373678 -5.04205413 5.70800212 -4.0625 4.5625 C-3.51722656 3.92441406 -2.97195312 3.28632812 -2.41015625 2.62890625 C-1.63204305 1.73008851 -0.84063472 0.84063472 0 0 Z M8 23 C8 26 8 26 8 26 Z " fill="#F2C94C" transform="translate(110,63)"/>
<path d="M0 0 C8.21345223 2.28621866 15.0169311 8.08040239 20.25 14.75 C22 18 22 18 21.8125 20.9375 C21.544375 21.618125 21.27625 22.29875 21 23 C18.3125 23.8125 18.3125 23.8125 15 24 C12.5625 21.9375 12.5625 21.9375 10 19 C5.16600171 14.33647017 -0.00413978 10.99793011 -6 8 C-6.62132813 7.68933594 -7.24265625 7.37867188 -7.8828125 7.05859375 C-11.87263305 5.20681605 -15.6408382 4.44481243 -20 4 C-20 3.67 -20 3.34 -20 3 C-14.72 3.33 -9.44 3.66 -4 4 C-4 4.66 -4 5.32 -4 6 C-2.68 5.34 -1.36 4.68 0 4 C0 2.68 0 1.36 0 0 Z " fill="#BB2B2D" transform="translate(110,33)"/>
<path d="M0 0 C0.33 0.99 0.66 1.98 1 3 C2.423125 2.938125 2.423125 2.938125 3.875 2.875 C7 3 7 3 9 5 C9.66 4.34 10.32 3.68 11 3 C13.97869283 2.77358406 16.83417859 2.67578355 19.8125 2.6875 C20.62009766 2.67138672 21.42769531 2.65527344 22.25976562 2.63867188 C27.02458736 2.63476948 30.08086258 2.98711342 34 6 C34.33 5.34 34.66 4.68 35 4 C35.99 4.99 36.98 5.98 38 7 C37.67 7.66 37.34 8.32 37 9 C23.36107679 12.41500086 6.79960477 13.3152235 -6 7 C-6 5.68 -6 4.36 -6 3 C-5.34 3 -4.68 3 -4 3 C-4 2.34 -4 1.68 -4 1 C-2.68 0.67 -1.36 0.34 0 0 Z " fill="#BE2629" transform="translate(61,136)"/>
<path d="M0 0 C0.96106169 3.03885 0.9806402 4.88415379 0.125 7.9375 C-2.49023502 18.11471476 -2.49023502 18.11471476 -1 28 C-0.92907158 30.2072923 -0.91584975 32.41667452 -0.9375 34.625 C-0.94652344 35.81351563 -0.95554687 37.00203125 -0.96484375 38.2265625 C-0.98224609 39.59941406 -0.98224609 39.59941406 -1 41 C-0.34 41 0.32 41 1 41 C1.0501123 40.2793335 1.10022461 39.55866699 1.15185547 38.81616211 C1.38523311 35.52267969 1.63001744 32.23013871 1.875 28.9375 C1.99294922 27.2369043 1.99294922 27.2369043 2.11328125 25.50195312 C2.5506658 19.73184159 3.11214609 14.47774934 5 9 C6.21081851 5.89459074 6.21081851 5.89459074 6 2 C6.66 2 7.32 2 8 2 C9.31918597 5.67613156 8.65329851 8.167465 7.625 11.875 C4.03132438 25.00702961 4.99272254 36.71970896 7 50 C6.01 50.495 6.01 50.495 5 51 C4.67 49.35 4.34 47.7 4 46 C3.01 45.67 2.02 45.34 1 45 C1 49.62 1 54.24 1 59 C-0.69189013 56.4621648 -1.60630417 54.6410374 -2.5625 51.8125 C-2.81128906 51.09707031 -3.06007813 50.38164063 -3.31640625 49.64453125 C-6.47343372 37.43134499 -6.50950444 22.1024729 -3 10 C-2.60361328 8.60587891 -2.60361328 8.60587891 -2.19921875 7.18359375 C-1.49363384 4.77925465 -0.76181158 2.38700962 0 0 Z " fill="#B23739" transform="translate(9,58)"/>
<path d="M0 0 C1.32 0 2.64 0 4 0 C4 0.66 4 1.32 4 2 C4.59949463 1.96970703 5.19898926 1.93941406 5.81665039 1.90820312 C8.56518018 1.77033918 11.31383549 1.63515028 14.0625 1.5 C15.00544922 1.45230469 15.94839844 1.40460938 16.91992188 1.35546875 C31.46866122 0.64577415 31.46866122 0.64577415 35 3 C35 4.32 35 5.64 35 7 C31.33385091 7.33919096 27.6670121 7.67028081 24 8 C22.97003906 8.09539062 21.94007812 8.19078125 20.87890625 8.2890625 C5.60446009 9.65111502 5.60446009 9.65111502 -1 8 C-1.93065133 5.39417629 -2.14917407 4.35801776 -1.0625 1.75 C-0.711875 1.1725 -0.36125 0.595 0 0 Z M2 2 C2.66 2.66 3.32 3.32 4 4 C4 3.34 4 2.68 4 2 C3.34 2 2.68 2 2 2 Z " fill="#BD2729" transform="translate(63,156)"/>
<path d="M0 0 C1.60875 0.4021875 1.60875 0.4021875 3.25 0.8125 C4.125 2.8125 4.125 2.8125 4.25 5.8125 C1.36927172 11.08497685 -2.83130591 15.42406629 -7.75 18.8125 C-8.74 18.4825 -9.73 18.1525 -10.75 17.8125 C-12.89255793 18.20182856 -12.89255793 18.20182856 -14.75 18.8125 C-14.75 19.8025 -14.75 20.7925 -14.75 21.8125 C-15.74 21.8125 -16.73 21.8125 -17.75 21.8125 C-17.75 22.4725 -17.75 23.1325 -17.75 23.8125 C-19.07 23.8125 -20.39 23.8125 -21.75 23.8125 C-21.75 22.8225 -21.75 21.8325 -21.75 20.8125 C-21.09 20.8125 -20.43 20.8125 -19.75 20.8125 C-19.66621094 20.22984375 -19.58242187 19.6471875 -19.49609375 19.046875 C-18.53273304 16.16183663 -17.12020296 15.01549274 -14.8125 13.0625 C-14.10222656 12.44890625 -13.39195313 11.8353125 -12.66015625 11.203125 C-10.75 9.8125 -10.75 9.8125 -8.75 9.8125 C-8.6675 9.090625 -8.585 8.36875 -8.5 7.625 C-7.1143263 2.42872363 -5.63637704 -0.28181885 0 0 Z " fill="#C0292D" transform="translate(127.75,115.1875)"/>
<path d="M0 0 C0.66 0.99 1.32 1.98 2 3 C2.99 2.67 3.98 2.34 5 2 C6 3 6 3 6.0625 5.5625 C6.041875 6.366875 6.02125 7.17125 6 8 C5.67 7.34 5.34 6.68 5 6 C4.34 6 3.68 6 3 6 C3.20625 6.928125 3.4125 7.85625 3.625 8.8125 C4 12 4 12 2 15 C0.21351928 22.90488527 -0.30946234 31.02900976 -0.75390625 39.1015625 C-1 42 -1 42 -2 45 C-3.485 45.495 -3.485 45.495 -5 46 C-4.98839844 45.01257813 -4.97679687 44.02515625 -4.96484375 43.0078125 C-4.95582031 41.72648437 -4.94679688 40.44515625 -4.9375 39.125 C-4.92589844 37.84882812 -4.91429687 36.57265625 -4.90234375 35.2578125 C-4.76823431 32.11335348 -4.76823431 32.11335348 -6 30 C-6.07847483 20.04939117 -3.8282782 10.47473198 -1 1 C-0.67 0.67 -0.34 0.34 0 0 Z " fill="#C12528" transform="translate(12,54)"/>
<path d="M0 0 C7.14815468 4.39886442 13.92079054 9.553824 18 17 C17.34 17.33 16.68 17.66 16 18 C15.34 17.34 14.68 16.68 14 16 C12.02 17.32 10.04 18.64 8 20 C7.39414063 19.41992188 6.78828125 18.83984375 6.1640625 18.2421875 C0.48938649 12.9516434 -5.18094038 8.69970256 -12 5 C-11.38640625 4.85691406 -10.7728125 4.71382812 -10.140625 4.56640625 C-7.89792233 3.9729904 -6.03970153 3.09269725 -4 2 C-4 2.99 -4 3.98 -4 5 C-3.34 5.33 -2.68 5.66 -2 6 C-2 6.66 -2 7.32 -2 8 C-0.68 7.34 0.64 6.68 2 6 C1.34 4.02 0.68 2.04 0 0 Z " fill="#BC4348" transform="translate(125,22)"/>
<path d="M0 0 C0.99 0.66 1.98 1.32 3 2 C6.12521833 2.16699232 6.12521833 2.16699232 9 2 C9 2.66 9 3.32 9 4 C10.134375 3.731875 11.26875 3.46375 12.4375 3.1875 C17.11632038 2.61407441 20.058424 3.96285064 24.01171875 6.38671875 C27.07093751 8.86895322 28.39012557 11.43027843 30 15 C29.34 15.66 28.68 16.32 28 17 C27.01 17 26.02 17 25 17 C25 16.34 25 15.68 25 15 C24.01 14.67 23.02 14.34 22 14 C21.67 13.34 21.34 12.68 21 12 C20.34 12.66 19.68 13.32 19 14 C16.875 13.625 16.875 13.625 15 13 C15 11.68 15 10.36 15 9 C6.51017403 7.44189642 6.51017403 7.44189642 -2 6 C-1.34 4.02 -0.68 2.04 0 0 Z " fill="#BD292B" transform="translate(98,13)"/>
<path d="M0 0 C2 0 2 0 3.76171875 1.57421875 C4.39722656 2.27160156 5.03273437 2.96898437 5.6875 3.6875 C6.33074219 4.37199219 6.97398438 5.05648437 7.63671875 5.76171875 C9 8 9 8 8.94140625 10.52734375 C7.8317657 13.4418768 6.55267918 14.78873804 4.25 16.875 C0.59200054 20.34878366 -2.28006755 23.75010555 -5 28 C-5 28.66 -5 29.32 -5 30 C-10.94 30.33 -16.88 30.66 -23 31 C-23.33 35.95 -23.66 40.9 -24 46 C-24.33 46 -24.66 46 -25 46 C-25.495 38.575 -25.495 38.575 -26 31 C-27.65 30.67 -29.3 30.34 -31 30 C-30.67 28.68 -30.34 27.36 -30 26 C-28.68 26.66 -27.36 27.32 -26 28 C-26 27.34 -26 26.68 -26 26 C-26.66 26 -27.32 26 -28 26 C-28.33 24.68 -28.66 23.36 -29 22 C-28.34 22 -27.68 22 -27 22 C-27 22.99 -27 23.98 -27 25 C-25.68 25.33 -24.36 25.66 -23 26 C-23 26.66 -23 27.32 -23 28 C-18.05 28 -13.1 28 -8 28 C-8 26.68 -8 25.36 -8 24 C-7.01 24 -6.02 24 -5 24 C-4.67 23.01 -4.34 22.02 -4 21 C-3.34 21 -2.68 21 -2 21 C-2 20.01 -2 19.02 -2 18 C-1.34 18 -0.68 18 0 18 C0.33 16.68 0.66 15.36 1 14 C1.99 14 2.98 14 4 14 C4 13.34 4 12.68 4 12 C4.99 12 5.98 12 7 12 C7 10.68 7 9.36 7 8 C3.98968256 7.06576355 3.13349732 6.95550089 0 8 C0 5.36 0 2.72 0 0 Z " fill="#F3C841" transform="translate(97,49)"/>
<path d="M0 0 C0.33 1.98 0.66 3.96 1 6 C1.66 6 2.32 6 3 6 C3 11.28 3 16.56 3 22 C1.68 21.67 0.36 21.34 -1 21 C-3.7839183 22.39195915 -3.97898997 24.15575779 -5 27 C-5.33 27 -5.66 27 -6 27 C-6.02724423 24.16660035 -6.04695589 21.33346883 -6.0625 18.5 C-6.07087891 17.70851563 -6.07925781 16.91703125 -6.08789062 16.1015625 C-6.10891185 10.97238283 -5.73937287 6.07663894 -5 1 C-2 0 -2 0 0 0 Z " fill="#B6282B" transform="translate(157,71)"/>
<path d="M0 0 C3.3020616 0.66041232 4.40784369 1.90284044 6.5 4.5 C7.8125 6.625 7.8125 6.625 8.5 8.5 C8.17 9.16 7.84 9.82 7.5 10.5 C6.84 10.5 6.18 10.5 5.5 10.5 C5.5 11.16 5.5 11.82 5.5 12.5 C4.84 12.5 4.18 12.5 3.5 12.5 C3.5 13.16 3.5 13.82 3.5 14.5 C1.3125 14.8125 1.3125 14.8125 -1.5 14.5 C-4.48886562 12.17532674 -6.2391072 10.68851166 -7.0625 6.9375 C-6.11945326 2.85096415 -4.12155291 0.82431058 0 0 Z " fill="#AC3A2C" transform="translate(37.5,80.5)"/>
<path d="M0 0 C3.375 0.9375 3.375 0.9375 5.375 3.9375 C5.24078372 7.69555585 5.14215513 10.06075128 2.625 12.9375 C-0.29194866 14.23392163 -1.64292673 14.00798784 -4.625 12.9375 C-6.4375 11.75 -6.4375 11.75 -7.625 9.9375 C-8.16352618 6.32168138 -8.04736225 4.59638511 -6.0625 1.5 C-3.625 -0.0625 -3.625 -0.0625 0 0 Z " fill="#BC2A29" transform="translate(127.625,81.0625)"/>
<path d="M0 0 C1.670625 0.061875 1.670625 0.061875 3.375 0.125 C3.705 1.115 4.035 2.105 4.375 3.125 C5.035 3.125 5.695 3.125 6.375 3.125 C6.85968708 9.54710386 6.85968708 9.54710386 4.75 12.0625 C1.68612364 13.43318153 -0.30451884 13.61953975 -3.625 13.125 C-5.5625 11.5625 -5.5625 11.5625 -6.625 9.125 C-6.16401132 0.21255211 -6.16401132 0.21255211 0 0 Z " fill="#BE242E" transform="translate(81.625,124.875)"/>
<path d="M0 0 C1.9375 1.125 1.9375 1.125 3 3 C3.53852618 6.61581862 3.42236225 8.34111489 1.4375 11.4375 C-1 13 -1 13 -4.625 12.9375 C-8 12 -8 12 -10 9 C-10.32162076 5.9124407 -10.48724515 3.85984439 -8.9375 1.125 C-5.8930714 -0.64273274 -3.4368988 -0.36823916 0 0 Z " fill="#C02728" transform="translate(85,38)"/>
<path d="M0 0 C0 0.66 0 1.32 0 2 C0.66 2.33 1.32 2.66 2 3 C1.67 3.33 1.34 3.66 1 4 C4.171738 5.585869 7.63513822 5.37866445 11.125 5.5625 C11.87910156 5.60568359 12.63320312 5.64886719 13.41015625 5.69335938 C15.27321888 5.7994832 17.13658524 5.90025001 19 6 C19 6.33 19 6.66 19 7 C18.10075806 7.08302368 18.10075806 7.08302368 17.18334961 7.16772461 C14.43456428 7.42253147 11.68603394 7.67999616 8.9375 7.9375 C7.52307617 8.06801758 7.52307617 8.06801758 6.08007812 8.20117188 C1.02829393 8.67642683 -3.98476739 9.22789068 -9 10 C-9.33 9.01 -9.66 8.02 -10 7 C-9.34 6.34 -8.68 5.68 -8 5 C-6.02 5.66 -4.04 6.32 -2 7 C-2.66 5.68 -3.32 4.36 -4 3 C-11.14735705 4.1315042 -11.14735705 4.1315042 -16.9375 8.0625 C-19.76406319 10.71775633 -22.21942016 10.70918617 -26 11 C-20.25457573 4.77270143 -8.71023916 -2.83180421 0 0 Z " fill="#B94445" transform="translate(71,29)"/>
<path d="M0 0 C0 1.66666667 0 3.33333333 0 5 C-2.97 4.505 -2.97 4.505 -6 4 C-6.33 4.99 -6.66 5.98 -7 7 C-6.34 7.66 -5.68 8.32 -5 9 C-10.33514048 12.05067873 -14.79755312 13.89487378 -21 14 C-23 12.6875 -23 12.6875 -24 11 C-24 10.34 -24 9.68 -24 9 C-23.37351563 8.81824219 -22.74703125 8.63648438 -22.1015625 8.44921875 C-20.87566406 8.07216797 -20.87566406 8.07216797 -19.625 7.6875 C-18.81289063 7.44386719 -18.00078125 7.20023438 -17.1640625 6.94921875 C-14.66815371 6.08631815 -14.66815371 6.08631815 -13 3 C-8.88970351 0.79513897 -4.68182607 -0.43892119 0 0 Z " fill="#BC3A3C" transform="translate(69,31)"/>
<path d="M0 0 C0.33 0.66 0.66 1.32 1 2 C1.99 2.33 2.98 2.66 4 3 C5.14491903 5.67147774 6.09805463 8.24814627 7 11 C7.29390625 11.81210938 7.5878125 12.62421875 7.890625 13.4609375 C9.54413135 18.10578714 9.54413135 18.10578714 10 20 C9.67 20.66 9.34 21.32 9 22 C7.68 21.01 6.36 20.02 5 19 C5 19.66 5 20.32 5 21 C4.34 21 3.68 21 3 21 C2.67 19.35 2.34 17.7 2 16 C1.34 16 0.68 16 0 16 C-2.28571429 4.57142857 -2.28571429 4.57142857 0 0 Z " fill="#BE2628" transform="translate(10,101)"/>
<path d="M0 0 C4.37847036 0.50159088 5.69350562 2.18047905 8.6484375 5.375 C9.52242187 6.303125 10.39640625 7.23125 11.296875 8.1875 C11.94914062 8.909375 12.60140625 9.63125 13.2734375 10.375 C12.2834375 10.705 11.2934375 11.035 10.2734375 11.375 C7.0859375 9.625 7.0859375 9.625 4.2734375 7.375 C4.2734375 6.385 4.2734375 5.395 4.2734375 4.375 C2.6234375 4.045 0.9734375 3.715 -0.7265625 3.375 C-0.7265625 4.035 -0.7265625 4.695 -0.7265625 5.375 C-0.0665625 5.375 0.5934375 5.375 1.2734375 5.375 C1.9334375 7.685 2.5934375 9.995 3.2734375 12.375 C4.2634375 12.375 5.2534375 12.375 6.2734375 12.375 C6.2734375 13.035 6.2734375 13.695 6.2734375 14.375 C6.9334375 14.705 7.5934375 15.035 8.2734375 15.375 C8.2734375 16.365 8.2734375 17.355 8.2734375 18.375 C5.11624178 16.98109461 2.9921722 15.33865028 0.5859375 12.875 C-0.01605469 12.2665625 -0.61804687 11.658125 -1.23828125 11.03125 C-4.05341789 7.89839453 -3.90169654 5.49064998 -3.7265625 1.375 C-2.7265625 0.375 -2.7265625 0.375 0 0 Z " fill="#B64346" transform="translate(36.7265625,117.625)"/>
<path d="M0 0 C0.33 0 0.66 0 1 0 C1 2.64 1 5.28 1 8 C1.5775 7.67 2.155 7.34 2.75 7 C5 6 5 6 9 6 C7.89061647 12.30596952 6.06802099 17.37529486 3 23 C2.67 23 2.34 23 2 23 C1.80377759 18.78121808 2.19769832 15.82989106 4 12 C2.85073734 12.95421808 1.70569459 13.91352045 0.5625 14.875 C-0.07558594 15.40867187 -0.71367187 15.94234375 -1.37109375 16.4921875 C-3.10805004 17.9222757 -3.10805004 17.9222757 -4 20 C-4.66 20 -5.32 20 -6 20 C-3.26821192 11.64072848 -3.26821192 11.64072848 -1.875 8.3125 C-0.83762001 5.57085288 -0.40417071 2.89655675 0 0 Z " fill="#BC3E42" transform="translate(149,100)"/>
<path d="M0 0 C0 0.33 0 0.66 0 1 C-1.65 1 -3.3 1 -5 1 C-5 0.34 -5 -0.32 -5 -1 C-5.67546875 -0.77183594 -6.3509375 -0.54367188 -7.046875 -0.30859375 C-7.93890625 -0.02113281 -8.8309375 0.26632813 -9.75 0.5625 C-10.63171875 0.85253906 -11.5134375 1.14257812 -12.421875 1.44140625 C-15.07834316 2.01697435 -16.47031106 1.89248371 -19 1 C-19 0.01 -19 -0.98 -19 -2 C-25.93 -2.66 -32.86 -3.32 -40 -4 C-40 -4.33 -40 -4.66 -40 -5 C-26.29732013 -7.06832904 -12.59909904 -6.29954952 0 0 Z " fill="#BD5657" transform="translate(110,32)"/>
<path d="M0 0 C5.19822672 1.36144033 8.09543873 3.46730171 12 7 C11.34 7.66 10.68 8.32 10 9 C9.01 8.67 8.02 8.34 7 8 C6.67 8.66 6.34 9.32 6 10 C-5.68386368 8.36924727 -5.68386368 8.36924727 -9.8125 6.4375 C-13.24944565 4.8875049 -16.26635418 4.38098427 -20 4 C-20 3.67 -20 3.34 -20 3 C-14.72 3.33 -9.44 3.66 -4 4 C-4 4.66 -4 5.32 -4 6 C-2.68 5.34 -1.36 4.68 0 4 C0 2.68 0 1.36 0 0 Z " fill="#BC2628" transform="translate(110,33)"/>
<path d="M0 0 C2.475 0.495 2.475 0.495 5 1 C5 1.99 5 2.98 5 4 C7.93720508 5.52299523 10.9168649 6.80100302 14 8 C14 9.32 14 10.64 14 12 C15.32 12 16.64 12 18 12 C17.34 13.65 16.68 15.3 16 17 C13.31325398 16.63692621 11.44127696 16.33095772 9.25 14.6875 C7.85255754 12.80095268 7.3962081 11.29800696 7 9 C6.01 9 5.02 9 4 9 C2.5393715 6.35261084 2 5.10551666 2 2 C1.34 2 0.68 2 0 2 C0 1.34 0 0.68 0 0 Z " fill="#C02628" transform="translate(36,121)"/>
<path d="M0 0 C2.475 0.495 2.475 0.495 5 1 C5 1.66 5 2.32 5 3 C7.475 3.99 7.475 3.99 10 5 C10 5.66 10 6.32 10 7 C11.299375 7.4021875 11.299375 7.4021875 12.625 7.8125 C15.91791964 8.97111987 18.91127875 10.38209839 22 12 C21.67 12.66 21.34 13.32 21 14 C18.36 13.67 15.72 13.34 13 13 C12.67 14.65 12.34 16.3 12 18 C8.00499382 16.6302836 5.19990508 14.74277578 2 12 C3.32 12 4.64 12 6 12 C6 12.66 6 13.32 6 14 C7.65 14 9.3 14 11 14 C11 12.02 11 10.04 11 8 C9.68 7.67 8.36 7.34 7 7 C7 6.34 7 5.68 7 5 C6.401875 4.855625 5.80375 4.71125 5.1875 4.5625 C3.43849596 4.1127561 1.71322977 3.57107659 0 3 C0 2.01 0 1.02 0 0 Z " fill="#BC4D52" transform="translate(33,138)"/>
<path d="M0 0 C0 0.99 0 1.98 0 3 C-0.66 3.66 -1.32 4.32 -2 5 C-2.23779528 8.0913386 -1.98965019 10.03104944 -1 13 C-0.360625 13.309375 0.27875 13.61875 0.9375 13.9375 C3.49831999 15.2567103 4.02880681 16.32921873 5 19 C5 19.99 5 20.98 5 22 C4.01 22.33 3.02 22.66 2 23 C-0.64296752 25.33203016 -1.87224426 26.61673278 -3 30 C-2.34 30 -1.68 30 -1 30 C-0.67 31.65 -0.34 33.3 0 35 C-1.98 33.35 -3.96 31.7 -6 30 C-5.67 28.68 -5.34 27.36 -5 26 C-4.34 26 -3.68 26 -3 26 C-3 25.34 -3 24.68 -3 24 C-2.34 24 -1.68 24 -1 24 C-1 23.34 -1 22.68 -1 22 C-0.01 21.34 0.98 20.68 2 20 C1.67 19.34 1.34 18.68 1 18 C0.71125 17.319375 0.4225 16.63875 0.125 15.9375 C-0.9104054 13.66229729 -0.9104054 13.66229729 -4 13 C-5.43825961 10.91452356 -6.01954817 9.60599336 -5.9375 7.0625 C-4.57618896 4.06761571 -2.39327587 2.20917772 0 0 Z " fill="#F0B034" transform="translate(44,69)"/>
<path d="M0 0 C2.04119788 1.61594832 4.04072937 3.2856382 6 5 C6 5.66 6 6.32 6 7 C6.66 7 7.32 7 8 7 C7.61168175 11.94879998 5.11315727 14.46172355 1.6875 17.75 C1.20087891 18.24371094 0.71425781 18.73742187 0.21289062 19.24609375 C-2.35948093 21.77345746 -4.3310002 23.61654159 -8 24 C-8 23.34 -8 22.68 -8 22 C-7.01 22 -6.02 22 -5 22 C-4.67 19.69 -4.34 17.38 -4 15 C-2.02 15 -0.04 15 2 15 C2 13.02 2 11.04 2 9 C3.32 9.33 4.64 9.66 6 10 C5.566875 9.566875 5.13375 9.13375 4.6875 8.6875 C4.130625 8.130625 3.57375 7.57375 3 7 C2.443125 6.525625 1.88625 6.05125 1.3125 5.5625 C0 4 0 4 0 0 Z " fill="#F4CE4F" transform="translate(98,108)"/>
<path d="M0 0 C1.64936913 0.78427352 3.29441127 1.57765259 4.9375 2.375 C5.85402344 2.81585938 6.77054688 3.25671875 7.71484375 3.7109375 C10 5 10 5 11 7 C11.99 7.33 12.98 7.66 14 8 C14 9.98 14 11.96 14 14 C12.35 14 10.7 14 9 14 C9 13.34 9 12.68 9 12 C7.68 11.67 6.36 11.34 5 11 C5 10.01 5 9.02 5 8 C3.68 7.67 2.36 7.34 1 7 C1 6.01 1 5.02 1 4 C0.34 4 -0.32 4 -1 4 C-0.67 2.68 -0.34 1.36 0 0 Z " fill="#BF2627" transform="translate(30,138)"/>
<path d="M0 0 C1.77074917 -0.02705729 3.54161711 -0.04642195 5.3125 -0.0625 C6.29863281 -0.07410156 7.28476562 -0.08570313 8.30078125 -0.09765625 C11 0 11 0 14 1 C13.67 2.65 13.34 4.3 13 6 C11.33333333 6.33333333 9.66666667 6.66666667 8 7 C7.154375 7.226875 6.30875 7.45375 5.4375 7.6875 C2.58545931 8.05314624 1.39542737 7.50823205 -1 6 C-0.67 4.02 -0.34 2.04 0 0 Z " fill="#BB3537" transform="translate(46,151)"/>
<path d="M0 0 C2.31 0.33 4.62 0.66 7 1 C7.875 3 7.875 3 8 6 C5.4442564 10.54550938 2.25811708 14.01282418 -2 17 C-2 15.35 -2 13.7 -2 12 C-1.34 11.67 -0.68 11.34 0 11 C0.37366113 9.00714063 0.70740515 7.00636471 1 5 C1.33 4.67 1.66 4.34 2 4 C1.01 3.67 0.02 3.34 -1 3 C-0.67 2.01 -0.34 1.02 0 0 Z " fill="#B73131" transform="translate(124,115)"/>
<path d="M0 0 C1.75 1.375 1.75 1.375 2.75 4.375 C1.38875 4.2821875 1.38875 4.2821875 0 4.1875 C-3.59379235 4.39483417 -4.59536943 5.09960237 -7.25 7.375 C-7.91 7.375 -8.57 7.375 -9.25 7.375 C-8.92 8.365 -8.59 9.355 -8.25 10.375 C-8.58 10.705 -8.91 11.035 -9.25 11.375 C-12.625 11.25 -12.625 11.25 -16.25 10.375 C-18.25 7.9375 -18.25 7.9375 -19.25 5.375 C-18.92 4.715 -18.59 4.055 -18.25 3.375 C-17.156875 3.705 -16.06375 4.035 -14.9375 4.375 C-11.40421116 5.50586649 -11.40421116 5.50586649 -8.25 5.375 C-7.92 4.385 -7.59 3.395 -7.25 2.375 C-3.11562942 -0.86545262 -3.11562942 -0.86545262 0 0 Z M-15.25 6.375 C-14.92 7.035 -14.59 7.695 -14.25 8.375 C-13.26 8.375 -12.27 8.375 -11.25 8.375 C-11.25 7.715 -11.25 7.055 -11.25 6.375 C-12.57 6.375 -13.89 6.375 -15.25 6.375 Z " fill="#E9B438" transform="translate(94.25,44.625)"/>
<path d="M0 0 C-0.33 0.66 -0.66 1.32 -1 2 C-0.03900391 2.07347656 -0.03900391 2.07347656 0.94140625 2.1484375 C6.21196085 2.6040145 10.96986288 3.3597379 16 5 C16 6.32 16 7.64 16 9 C14.783125 8.566875 13.56625 8.13375 12.3125 7.6875 C0.20330234 3.72004549 -11.34531619 2.41188084 -24 2 C-24 1.67 -24 1.34 -24 1 C-22.73542969 0.93941406 -21.47085938 0.87882812 -20.16796875 0.81640625 C-18.50780129 0.73199096 -16.84764563 0.64734345 -15.1875 0.5625 C-14.35412109 0.52318359 -13.52074219 0.48386719 -12.66210938 0.44335938 C-11.85966797 0.40146484 -11.05722656 0.35957031 -10.23046875 0.31640625 C-9.12288208 0.26141968 -9.12288208 0.26141968 -7.99291992 0.20532227 C-1.41661988 -0.47220663 -1.41661988 -0.47220663 0 0 Z " fill="#B65D5F" transform="translate(97,17)"/>
<path d="M0 0 C-0.144375 0.70125 -0.28875 1.4025 -0.4375 2.125 C-1.01478375 5.07556141 -1.51695141 8.03270151 -2 11 C-2.66 11 -3.32 11 -4 11 C-4 11.99 -4 12.98 -4 14 C-4.66 14 -5.32 14 -6 14 C-6 14.99 -6 15.98 -6 17 C-6.66 17 -7.32 17 -8 17 C-8.33 17.66 -8.66 18.32 -9 19 C-10 16 -10 16 -9 13 C-8.01 12.67 -7.02 12.34 -6 12 C-7.32 11.67 -8.64 11.34 -10 11 C-10 10.01 -10 9.02 -10 8 C-9.34 8 -8.68 8 -8 8 C-7.7525 7.4225 -7.505 6.845 -7.25 6.25 C-5.58207452 3.24773413 -3.67725381 0 0 0 Z " fill="#BE2629" transform="translate(153,112)"/>
<path d="M0 0 C1.32 0 2.64 0 4 0 C4 0.66 4 1.32 4 2 C5.65 2 7.3 2 9 2 C9.33 3.65 9.66 5.3 10 7 C10.66 7 11.32 7 12 7 C12 7.66 12 8.32 12 9 C7.48382401 9.07654536 3.40914783 9.10228696 -1 8 C-1.93065133 5.39417629 -2.14917407 4.35801776 -1.0625 1.75 C-0.711875 1.1725 -0.36125 0.595 0 0 Z M2 2 C2.66 2.66 3.32 3.32 4 4 C4 3.34 4 2.68 4 2 C3.34 2 2.68 2 2 2 Z " fill="#BC373B" transform="translate(63,156)"/>
<path d="M0 0 C0.33 0.66 0.66 1.32 1 2 C-0.20697532 5.40147591 -1.93504686 7.14245264 -5 9 C-5.99 9 -6.98 9 -8 9 C-8 13.95 -8 18.9 -8 24 C-7.01 24 -6.02 24 -5 24 C-4.67 25.65 -4.34 27.3 -4 29 C-8.875 26.125 -8.875 26.125 -10 25 C-12.80240186 12.93410308 -12.80240186 12.93410308 -9.96337891 8.3125 C-7.05827305 5.01759514 -3.62760031 2.46676821 0 0 Z " fill="#EDC023" transform="translate(102,71)"/>
<path d="M0 0 C0.98541383 3.09379156 0.96325609 5.02670091 0.12890625 8.1484375 C-1.04334155 12.95750783 -1.60600008 17.70273998 -2.0625 22.625 C-2.59230568 28.10695625 -3.17504112 33.5538113 -4 39 C-4.33 39 -4.66 39 -5 39 C-5.38400253 18.22119659 -5.38400253 18.22119659 -3 10 C-2.60361328 8.60587891 -2.60361328 8.60587891 -2.19921875 7.18359375 C-1.49363384 4.77925465 -0.76181158 2.38700962 0 0 Z " fill="#BC5358" transform="translate(9,58)"/>
<path d="M0 0 C0.33 0.99 0.66 1.98 1 3 C1.928125 2.938125 2.85625 2.87625 3.8125 2.8125 C7 3 7 3 8.875 4.5 C9.24625 4.995 9.6175 5.49 10 6 C10.66 5.67 11.32 5.34 12 5 C11.67 6.32 11.34 7.64 11 9 C9.35 9 7.7 9 6 9 C5.67 8.01 5.34 7.02 5 6 C1.37 6 -2.26 6 -6 6 C-6 5.01 -6 4.02 -6 3 C-5.34 3 -4.68 3 -4 3 C-4 2.34 -4 1.68 -4 1 C-2.68 0.67 -1.36 0.34 0 0 Z " fill="#BF2627" transform="translate(61,136)"/>
<path d="M0 0 C1 2 1 2 0.25 4.5625 C-1 7 -1 7 -4 8 C-3.67 9.98 -3.34 11.96 -3 14 C-2.01 14 -1.02 14 0 14 C0 14.66 0 15.32 0 16 C-2.875 16.625 -2.875 16.625 -6 17 C-8 15 -8 15 -8.375 12.1796875 C-7.91120761 8.24711454 -6.72687526 6.93709011 -4 4.125 C-3.2575 3.34382813 -2.515 2.56265625 -1.75 1.7578125 C-1.1725 1.17773438 -0.595 0.59765625 0 0 Z " fill="#B44A4D" transform="translate(41,43)"/>
<path d="M0 0 C2.125 -0.4375 2.125 -0.4375 5 0 C7.276147 2.12689146 9.1458722 4.5023433 11 7 C10.67 7.66 10.34 8.32 10 9 C7.75390625 7.09570312 7.75390625 7.09570312 5.5078125 5.19140625 C3.99405921 3.9121848 3.99405921 3.9121848 2 3 C1.67 2.67 1.34 2.34 1 2 C0.67 2.99 0.34 3.98 0 5 C-1.375 6.6875 -1.375 6.6875 -3 8 C-3.99 8 -4.98 8 -6 8 C-6 8.66 -6 9.32 -6 10 C-7.65 10 -9.3 10 -11 10 C-11.33 9.01 -11.66 8.02 -12 7 C-12.66 7 -13.32 7 -14 7 C-14.33 6.01 -14.66 5.02 -15 4 C-13.0625 4.375 -13.0625 4.375 -11 5 C-10.67 5.66 -10.34 6.32 -10 7 C-9.01 7.33 -8.02 7.66 -7 8 C-6.67 7.01 -6.34 6.02 -6 5 C-2.9375 3.8125 -2.9375 3.8125 0 3 C0 2.01 0 1.02 0 0 Z " fill="#EEB847" transform="translate(79,121)"/>
<path d="M0 0 C0.99 0 1.98 0 3 0 C2.34 2.97 1.68 5.94 1 9 C-6.47091243 10.34721372 -6.47091243 10.34721372 -9 8.6875 C-10 7 -10 7 -10 5 C-9.36191406 4.80664062 -8.72382812 4.61328125 -8.06640625 4.4140625 C-7.24011719 4.15367188 -6.41382813 3.89328125 -5.5625 3.625 C-4.32693359 3.24214844 -4.32693359 3.24214844 -3.06640625 2.8515625 C-0.82201984 2.19117773 -0.82201984 2.19117773 0 0 Z " fill="#BD282A" transform="translate(55,35)"/>
<path d="M0 0 C0.99 0.33 1.98 0.66 3 1 C3.48468708 7.42210386 3.48468708 7.42210386 1.375 9.9375 C-1.68887636 11.30818153 -3.67951884 11.49453975 -7 11 C-9.467339 8.7793949 -9.96152446 7.56430797 -10.1875 4.25 C-10.125625 3.5075 -10.06375 2.765 -10 2 C-9.67 2.66 -9.34 3.32 -9 4 C-8.01 4.33 -7.02 4.66 -6 5 C-6 5.99 -6 6.98 -6 8 C-4.68 7.67 -3.36 7.34 -2 7 C-1.34 4.69 -0.68 2.38 0 0 Z " fill="#B2443D" transform="translate(85,127)"/>
<path d="M0 0 C0.99 0.33 1.98 0.66 3 1 C2.67 2.65 2.34 4.3 2 6 C0.68 6.33 -0.64 6.66 -2 7 C-2 7.99 -2 8.98 -2 10 C-2.99 10 -3.98 10 -5 10 C-5 10.66 -5 11.32 -5 12 C-6.32 12 -7.64 12 -9 12 C-9 11.01 -9 10.02 -9 9 C-8.34 9 -7.68 9 -7 9 C-6.95875 8.443125 -6.9175 7.88625 -6.875 7.3125 C-5.49042634 3.65326962 -3.19027233 2.23319063 0 0 Z " fill="#C22529" transform="translate(115,127)"/>
<path d="M0 0 C2.29013653 3.4352048 2.17842973 4.985331 2 9 C0.68 9 -0.64 9 -2 9 C-2.33 9.66 -2.66 10.32 -3 11 C-4.32 11.33 -5.64 11.66 -7 12 C-6.67 9.03 -6.34 6.06 -6 3 C-5.01 3 -4.02 3 -3 3 C-1.31201173 1.56249809 -1.31201173 1.56249809 0 0 Z " fill="#B62426" transform="translate(156,97)"/>
<path d="M0 0 C0.99 0.66 1.98 1.32 3 2 C6.12521833 2.16699232 6.12521833 2.16699232 9 2 C9 2.66 9 3.32 9 4 C10.65 3.67 12.3 3.34 14 3 C13.67 3.99 13.34 4.98 13 6 C12.34 6 11.68 6 11 6 C11 6.66 11 7.32 11 8 C6.71 7.34 2.42 6.68 -2 6 C-1.34 4.02 -0.68 2.04 0 0 Z " fill="#BF2628" transform="translate(98,13)"/>
<path d="M0 0 C0.66 0 1.32 0 2 0 C1.54730649 4.91495806 -0.95091175 8.02200064 -3.9375 11.75 C-4.62102539 12.63365234 -4.62102539 12.63365234 -5.31835938 13.53515625 C-8.70948143 17.85474072 -8.70948143 17.85474072 -11 19 C-8.90608906 10.37231142 -8.90608906 10.37231142 -7 7 C-4.3125 6 -4.3125 6 -2 6 C-2 5.01 -2 4.02 -2 3 C-1.34 3 -0.68 3 0 3 C0 2.01 0 1.02 0 0 Z " fill="#B63F40" transform="translate(149,123)"/>
<path d="M0 0 C3.375 0.9375 3.375 0.9375 5.375 3.9375 C5.5 6.625 5.5 6.625 5.375 8.9375 C5.045 7.6175 4.715 6.2975 4.375 4.9375 C3.385 4.9375 2.395 4.9375 1.375 4.9375 C1.375 3.9475 1.375 2.9575 1.375 1.9375 C-0.605 2.5975 -2.585 3.2575 -4.625 3.9375 C-4.955 5.9175 -5.285 7.8975 -5.625 9.9375 C-4.965 9.9375 -4.305 9.9375 -3.625 9.9375 C-3.625 10.5975 -3.625 11.2575 -3.625 11.9375 C-1.645 11.9375 0.335 11.9375 2.375 11.9375 C1.715 12.5975 1.055 13.2575 0.375 13.9375 C-2.35325177 13.72763448 -4.14396341 13.2526619 -6.4375 11.75 C-8.23472017 9.00687448 -8.08274125 7.14168874 -7.625 3.9375 C-5.31085172 0.32742869 -4.32918251 -0.07464108 0 0 Z " fill="#B25542" transform="translate(127.625,81.0625)"/>
<path d="M0 0 C0 3 0 3 -1 6 C1.97 6 4.94 6 8 6 C8 4.68 8 3.36 8 2 C9.32 2 10.64 2 12 2 C10.51014431 5.79235994 8.41341953 7.80565887 5 10 C2.6875 9.75 2.6875 9.75 1 9 C1 8.34 1 7.68 1 7 C-2.63 7.33 -6.26 7.66 -10 8 C-7.1568006 5.1568006 -4.35155406 3.18579613 -1 1 C-0.67 0.67 -0.34 0.34 0 0 Z " fill="#BB5354" transform="translate(124,141)"/>
<path d="M0 0 C0.66 0 1.32 0 2 0 C2.33 1.32 2.66 2.64 3 4 C3.99 4 4.98 4 6 4 C5.835 4.928125 5.67 5.85625 5.5 6.8125 C4.92251612 9.95621353 4.92251612 9.95621353 5 13 C2.03 12.505 2.03 12.505 -1 12 C-1.33 9.69 -1.66 7.38 -2 5 C-1.34 5 -0.68 5 0 5 C0 3.35 0 1.7 0 0 Z " fill="#BC2528" transform="translate(145,47)"/>
<path d="M0 0 C0.33 0.66 0.66 1.32 1 2 C-0.21258505 5.23356015 -1.01284458 6.00856305 -4 8 C-4.33 8.99 -4.66 9.98 -5 11 C-5.639375 11.309375 -6.27875 11.61875 -6.9375 11.9375 C-9.45468915 13.2342338 -9.96886948 14.4221737 -11 17 C-10.01 17.33 -9.02 17.66 -8 18 C-7.6278958 19.32303717 -7.29369827 20.65737935 -7 22 C-6.34 22.33 -5.68 22.66 -5 23 C-8 23 -8 23 -10.75 20.75 C-13 18 -13 18 -12.85546875 16.08203125 C-11.81026382 13.53822198 -10.42950645 11.95200384 -8.5625 9.9375 C-6.47083853 7.66243606 -4.72328194 5.58492291 -3 3 C-2.34 3 -1.68 3 -1 3 C-0.67 2.01 -0.34 1.02 0 0 Z " fill="#F2D564" transform="translate(70,101)"/>
<path d="M0 0 C0.99 0.33 1.98 0.66 3 1 C3.33 1.99 3.66 2.98 4 4 C6.01508358 4.73323796 6.01508358 4.73323796 8 5 C8.33 3.68 8.66 2.36 9 1 C9 1.99 9 2.98 9 4 C9.66 4.33 10.32 4.66 11 5 C7.25 8 7.25 8 5 8 C4.67 8.66 4.34 9.32 4 10 C-2 7 -2 7 -3 5 C-1.5625 2.375 -1.5625 2.375 0 0 Z " fill="#BC3334" transform="translate(44,40)"/>
<path d="M0 0 C0 0.99 0 1.98 0 3 C-1.134375 2.835 -2.26875 2.67 -3.4375 2.5 C-9.0060197 1.8495969 -14.5513543 1.9710399 -20.14624023 2.125 C-23.99850866 2.18774479 -25.71129157 2.19247228 -29 0 C-19.27793445 -1.43440311 -9.75923339 -0.65128354 0 0 Z " fill="#C45A60" transform="translate(97,10)"/>
<path d="M0 0 C0 0.33 0 0.66 0 1 C-9.63862168 3.52816306 -19.11436703 3.18269137 -29 3 C-23.32512329 -2.67487671 -7.71217431 -0.11529829 0 0 Z " fill="#C06569" transform="translate(102,163)"/>
<path d="M0 0 C0.99 0.33 1.98 0.66 3 1 C2.67 2.65 2.34 4.3 2 6 C1.01 6.33 0.02 6.66 -1 7 C-1.99 8.485 -1.99 8.485 -3 10 C-3.99 10.33 -4.98 10.66 -6 11 C-7.0409066 12.64142963 -8.04504326 14.30712215 -9 16 C-9.33 16 -9.66 16 -10 16 C-10.27734375 13.79296875 -10.27734375 13.79296875 -10 11 C-8.06640625 8.61328125 -8.06640625 8.61328125 -5.5625 6.3125 C-2.35159198 3.47943755 -2.35159198 3.47943755 0 0 Z " fill="#B73D40" transform="translate(136,129)"/>
<path d="M0 0 C2.5625 1.625 2.5625 1.625 4 3 C2.35 3 0.7 3 -1 3 C-1 2.34 -1 1.68 -1 1 C-2.01320313 1.34224609 -2.01320313 1.34224609 -3.046875 1.69140625 C-4.38492188 2.12259766 -4.38492188 2.12259766 -5.75 2.5625 C-6.63171875 2.85253906 -7.5134375 3.14257812 -8.421875 3.44140625 C-11.07834316 4.01697435 -12.47031106 3.89248371 -15 3 C-15 2.01 -15 1.02 -15 0 C-9.54852581 -2.51606501 -5.49666928 -1.90871059 0 0 Z " fill="#C13F43" transform="translate(106,30)"/>
<path d="M0 0 C-0.4979837 3.73487777 -0.87491756 5.81237635 -3 9 C-5.625 9.6875 -5.625 9.6875 -8 10 C-9 7 -9 7 -8.3125 4.4375 C-6.25931284 0.62443813 -4.22851835 0 0 0 Z " fill="#BF2529" transform="translate(43,23)"/>
<path d="M0 0 C3.08089673 2.77280706 4.68775452 5.06326356 6 9 C4.68 9.33 3.36 9.66 2 10 C2 8.35 2 6.7 2 5 C1.34 5 0.68 5 0 5 C0.061875 5.763125 0.12375 6.52625 0.1875 7.3125 C0 10 0 10 -1.5 11.8125 C-1.995 12.204375 -2.49 12.59625 -3 13 C-4.98 9.535 -4.98 9.535 -7 6 C-6.236875 5.855625 -5.47375 5.71125 -4.6875 5.5625 C-1.91827092 5.0367406 -1.91827092 5.0367406 1 4 C0.67 2.68 0.34 1.36 0 0 Z " fill="#BB3F41" transform="translate(145,42)"/>
<path d="M0 0 C0.33 0.99 0.66 1.98 1 3 C0.2575 3.2475 -0.485 3.495 -1.25 3.75 C-4.26350999 5.11977727 -5.78369093 6.5692094 -8 9 C-9.29470975 10.37086915 -10.62150897 11.71340837 -12 13 C-12.66 13 -13.32 13 -14 13 C-14.33 14.32 -14.66 15.64 -15 17 C-15.66503906 15.20214844 -15.66503906 15.20214844 -16 13 C-14.96777344 11.35253906 -14.96777344 11.35253906 -13.359375 9.765625 C-12.78316406 9.19199219 -12.20695312 8.61835937 -11.61328125 8.02734375 C-10.99839844 7.44082031 -10.38351563 6.85429688 -9.75 6.25 C-9.15058594 5.64800781 -8.55117187 5.04601563 -7.93359375 4.42578125 C-3.40745465 0 -3.40745465 0 0 0 Z " fill="#F6D86C" transform="translate(73,44)"/>
<path d="M0 0 C3.3 0 6.6 0 10 0 C7.5615972 2.4384028 5.0864312 3.58920371 2 5.125 C0.9275 5.66382813 -0.145 6.20265625 -1.25 6.7578125 C-4 8 -4 8 -6 8 C-6 6.68 -6 5.36 -6 4 C-5.34 4 -4.68 4 -4 4 C-3.67 3.34 -3.34 2.68 -3 2 C-2.01 2.33 -1.02 2.66 0 3 C0 2.01 0 1.02 0 0 Z " fill="#BC4950" transform="translate(50,22)"/>
<path d="M0 0 C4.8 3.32307692 4.8 3.32307692 5.8125 6.75 C5.874375 7.4925 5.93625 8.235 6 9 C2.37673261 10.2077558 1.35853631 9.54311128 -2 8 C-2 5.69 -2 3.38 -2 1 C-1.34 0.67 -0.68 0.34 0 0 Z " fill="#C1282B" transform="translate(130,29)"/>
<path d="M0 0 C0 0.99 0 1.98 0 3 C-0.66 3.66 -1.32 4.32 -2 5 C-2.23779528 8.0913386 -1.98965019 10.03104944 -1 13 C0.31647119 13.69937532 1.65022151 14.36729133 3 15 C3.33 15.66 3.66 16.32 4 17 C2.68 17.33 1.36 17.66 0 18 C-0.103125 17.360625 -0.20625 16.72125 -0.3125 16.0625 C-0.539375 15.381875 -0.76625 14.70125 -1 14 C-1.99 13.67 -2.98 13.34 -4 13 C-5.43825961 10.91452356 -6.01954817 9.60599336 -5.9375 7.0625 C-4.57618896 4.06761571 -2.39327587 2.20917772 0 0 Z " fill="#EFBA5D" transform="translate(44,69)"/>
<path d="M0 0 C1.2065625 0.0309375 1.2065625 0.0309375 2.4375 0.0625 C3.0975 1.7125 3.7575 3.3625 4.4375 5.0625 C0.4775 5.0625 -3.4825 5.0625 -7.5625 5.0625 C-7.8925 4.0725 -8.2225 3.0825 -8.5625 2.0625 C-5.5625 3.0625 -5.5625 3.0625 -4.5625 4.0625 C-4.2325 3.0725 -3.9025 2.0825 -3.5625 1.0625 C-2.5625 0.0625 -2.5625 0.0625 0 0 Z " fill="#BE2625" transform="translate(56.5625,16.9375)"/>
<path d="M0 0 C3.73639216 1.24546405 4.18756513 2.63404953 6 6 C5.01 6.495 5.01 6.495 4 7 C3.34 6.34 2.68 5.68 2 5 C0.02 6.32 -1.96 7.64 -4 9 C-5.32 7.35 -6.64 5.7 -8 4 C-5.03 4.495 -5.03 4.495 -2 5 C-2 3.68 -2 2.36 -2 1 C-1.34 0.67 -0.68 0.34 0 0 Z " fill="#B73F44" transform="translate(137,33)"/>
<path d="M0 0 C2.26998857 3.40498285 3.92252127 6.98149446 5.625 10.6875 C5.94984375 11.38939453 6.2746875 12.09128906 6.609375 12.81445312 C7.40848336 14.54193738 8.20454043 16.27083254 9 18 C8.01 18 7.02 18 6 18 C6 17.34 6 16.68 6 16 C4.02 16.99 4.02 16.99 2 18 C2.226875 17.360625 2.45375 16.72125 2.6875 16.0625 C3.07800679 12.23553344 2.06036901 9.72570816 0.69140625 6.18359375 C0 4 0 4 0 0 Z " fill="#BC5154" transform="translate(16,108)"/>
<path d="M0 0 C0.66 0 1.32 0 2 0 C3.31918597 3.67613156 2.65329851 6.167465 1.625 9.875 C0.52159102 13.90708329 -0.37056446 17.86547246 -1 22 C-2.93818597 18.77962947 -3.18000929 16.71165914 -2.75 13 C-2.66234375 12.154375 -2.5746875 11.30875 -2.484375 10.4375 C-2 8 -2 8 -0.953125 5.9375 C0.29427678 3.76167274 0.29427678 3.76167274 0 0 Z " fill="#B64548" transform="translate(15,60)"/>
<path d="M0 0 C7.26 0.33 14.52 0.66 22 1 C22 1.33 22 1.66 22 2 C14.64206267 2.91160286 7.41017023 3.11459026 0 3 C0 2.01 0 1.02 0 0 Z M-2 3 C-1.34 3 -0.68 3 0 3 C-0.33 3.66 -0.66 4.32 -1 5 C-1.33 4.34 -1.66 3.68 -2 3 Z " fill="#C96465" transform="translate(67,155)"/>
<path d="M0 0 C1.32 0 2.64 0 4 0 C3.67 2.31 3.34 4.62 3 7 C3.66 7 4.32 7 5 7 C4.67 8.32 4.34 9.64 4 11 C-0.90322581 6.70967742 -0.90322581 6.70967742 -1.375 3.25 C-1 1 -1 1 0 0 Z " fill="#B94643" transform="translate(32,84)"/>
<path d="M0 0 C4.20603427 1.40201142 6.02122654 4.09992784 8 8 C7.8125 10.9375 7.8125 10.9375 7 13 C5.02 13.33 3.04 13.66 1 14 C1 13.34 1 12.68 1 12 C2.65 12 4.3 12 6 12 C5.34 11.01 4.68 10.02 4 9 C3.67 9 3.34 9 3 9 C3 7.35 3 5.7 3 4 C2.34 4 1.68 4 1 4 C0.67 2.68 0.34 1.36 0 0 Z " fill="#B65554" transform="translate(124,43)"/>
<path d="M0 0 C5.94 0 11.88 0 18 0 C18 0.66 18 1.32 18 2 C8.595 2.495 8.595 2.495 -1 3 C-0.67 2.01 -0.34 1.02 0 0 Z " fill="#A93233" transform="translate(72,139)"/>
<path d="M0 0 C1.1653125 0.01417969 2.330625 0.02835937 3.53125 0.04296875 C5.27921875 0.05263672 5.27921875 0.05263672 7.0625 0.0625 C10.03125 0.23046875 10.03125 0.23046875 12.03125 1.23046875 C12.03125 1.89046875 12.03125 2.55046875 12.03125 3.23046875 C12.69125 3.23046875 13.35125 3.23046875 14.03125 3.23046875 C13.70125 4.22046875 13.37125 5.21046875 13.03125 6.23046875 C12.37125 6.23046875 11.71125 6.23046875 11.03125 6.23046875 C10.70125 5.24046875 10.37125 4.25046875 10.03125 3.23046875 C5.08125 2.90046875 0.13125 2.57046875 -4.96875 2.23046875 C-2.96875 0.23046875 -2.96875 0.23046875 0 0 Z " fill="#F4D84F" transform="translate(77.96875,96.76953125)"/>
<path d="M0 0 C1.65 0 3.3 0 5 0 C5.33 1.98 5.66 3.96 6 6 C3.625 7.0625 3.625 7.0625 1 8 C0.34 7.67 -0.32 7.34 -1 7 C-0.67 4.69 -0.34 2.38 0 0 Z " fill="#C4272C" transform="translate(36,84)"/>
<path d="M0 0 C0.99 0.33 1.98 0.66 3 1 C1.54331217 3.96783129 -0.01232086 6.86415313 -1.625 9.75 C-2.29402344 10.94882812 -2.29402344 10.94882812 -2.9765625 12.171875 C-3.48316406 13.07679687 -3.48316406 13.07679687 -4 14 C-4.33 14 -4.66 14 -5 14 C-4.67 10.04 -4.34 6.08 -4 2 C-2.02 2.495 -2.02 2.495 0 3 C0 2.01 0 1.02 0 0 Z " fill="#BB4A4B" transform="translate(26,42)"/>
<path d="M0 0 C1.134375 0.020625 2.26875 0.04125 3.4375 0.0625 C3.4375 1.0525 3.4375 2.0425 3.4375 3.0625 C2.4475 3.0625 1.4575 3.0625 0.4375 3.0625 C0.4375 3.7225 0.4375 4.3825 0.4375 5.0625 C-1.5425 5.3925 -3.5225 5.7225 -5.5625 6.0625 C-4.48849278 0.07874549 -4.48849278 0.07874549 0 0 Z " fill="#BE3528" transform="translate(81.5625,124.9375)"/>
<path d="M0 0 C0.33 0.99 0.66 1.98 1 3 C2.65 3.33 4.3 3.66 6 4 C3.48169253 7.12270126 2.2738451 7.94523098 -1.75 8.75 C-3.35875 8.87375 -3.35875 8.87375 -5 9 C-3.35 6.03 -1.7 3.06 0 0 Z " fill="#C24144" transform="translate(142,120)"/>
<path d="M0 0 C2.31 0.33 4.62 0.66 7 1 C7.75 3.125 7.75 3.125 8 6 C6.125 9.3125 6.125 9.3125 4 12 C3.67 12 3.34 12 3 12 C3 10.02 3 8.04 3 6 C3.66 6 4.32 6 5 6 C5 4.68 5 3.36 5 2 C3.02 2 1.04 2 -1 2 C-0.67 1.34 -0.34 0.68 0 0 Z " fill="#AE6566" transform="translate(124,115)"/>
<path d="M0 0 C0.66 0.99 1.32 1.98 2 3 C-0.66666667 3 -3.33333333 3 -6 3 C-6.66 4.98 -7.32 6.96 -8 9 C-8.66 9 -9.32 9 -10 9 C-10.35789474 3.63157895 -10.35789474 3.63157895 -8.9375 1.125 C-5.90185629 -0.63763183 -3.42201828 -0.37331109 0 0 Z " fill="#B24F4B" transform="translate(85,38)"/>
<path d="M0 0 C-0.33 0.99 -0.66 1.98 -1 3 C-1.99 3.33 -2.98 3.66 -4 4 C-4.5775 4.66 -5.155 5.32 -5.75 6 C-8.715282 8.63580622 -11.11820531 8.70140041 -15 9 C-12.59888822 6.36115438 -9.99444972 4.63586471 -6.9375 2.8125 C-5.62072266 2.01779297 -5.62072266 2.01779297 -4.27734375 1.20703125 C-2 0 -2 0 0 0 Z " fill="#BA4E4F" transform="translate(60,31)"/>
<path d="M0 0 C-1.16082625 3.48247874 -1.90932476 3.88819244 -4.9375 5.75 C-5.64777344 6.19859375 -6.35804687 6.6471875 -7.08984375 7.109375 C-7.72019531 7.40328125 -8.35054688 7.6971875 -9 8 C-9.66 7.67 -10.32 7.34 -11 7 C-10.67 6.01 -10.34 5.02 -10 4 C-9.01 4 -8.02 4 -7 4 C-7 3.01 -7 2.02 -7 1 C-3.375 -1.125 -3.375 -1.125 0 0 Z " fill="#B53D40" transform="translate(120,133)"/>
<path d="M0 0 C1.32 0.66 2.64 1.32 4 2 C4 3.32 4 4.64 4 6 C1.36 6.33 -1.28 6.66 -4 7 C-4 5.68 -4 4.36 -4 3 C-2 1.25 -2 1.25 0 0 Z " fill="#BC282B" transform="translate(139,37)"/>
<path d="M0 0 C1.77007714 -0.08114106 3.54122098 -0.13925505 5.3125 -0.1875 C6.29863281 -0.22230469 7.28476562 -0.25710937 8.30078125 -0.29296875 C11 0 11 0 12.85546875 1.38671875 C14 3 14 3 14 5 C9.16371695 4.00956295 4.52381127 3.04301154 0 1 C0 0.67 0 0.34 0 0 Z " fill="#B54449" transform="translate(55,142)"/>
<path d="M0 0 C4.95 1.32 9.9 2.64 15 4 C13.68 5.32 12.36 6.64 11 8 C10.34 7.34 9.68 6.68 9 6 C8.030625 5.855625 7.06125 5.71125 6.0625 5.5625 C2.88101063 4.97814481 1.85594787 4.57770538 0 2 C0 1.34 0 0.68 0 0 Z " fill="#B64845" transform="translate(59,134)"/>
<path d="M0 0 C0.66 0.33 1.32 0.66 2 1 C2 2.65 2 4.3 2 6 C2.66 6 3.32 6 4 6 C4 5.34 4 4.68 4 4 C4.99 4.33 5.98 4.66 7 5 C7 6.65 7 8.3 7 10 C6.67 9.34 6.34 8.68 6 8 C5.01 8.99 4.02 9.98 3 11 C2.30034557 9.73581754 1.61565237 8.46334598 0.9375 7.1875 C0.55464844 6.47980469 0.17179688 5.77210937 -0.22265625 5.04296875 C-1 3 -1 3 0 0 Z " fill="#BA3644" transform="translate(11,116)"/>
<path d="M0 0 C2.97 0.495 2.97 0.495 6 1 C6.31991247 4.51903714 6.37169764 6.42015168 4.4375 9.4375 C2 11 2 11 -1.75 10.75 C-3.35875 10.37875 -3.35875 10.37875 -5 10 C-5 9.01 -5 8.02 -5 7 C-2.69 7.66 -0.38 8.32 2 9 C2 8.34 2 7.68 2 7 C2.66 7 3.32 7 4 7 C4 5.68 4 4.36 4 3 C2.68 2.34 1.36 1.68 0 1 C0 0.67 0 0.34 0 0 Z " fill="#B33D14" transform="translate(82,40)"/>
<path d="M0 0 C5.65394631 -0.34615998 9.03006806 0.56574762 14 3 C13.67 3.66 13.34 4.32 13 5 C11.68 5 10.36 5 9 5 C9 4.34 9 3.68 9 3 C6.69 3.33 4.38 3.66 2 4 C1.34 2.68 0.68 1.36 0 0 Z " fill="#B73F42" transform="translate(98,12)"/>
<path d="M0 0 C0.33 0 0.66 0 1 0 C1.33 4.95 1.66 9.9 2 15 C2.99 15 3.98 15 5 15 C5.33 16.65 5.66 18.3 6 20 C1.125 17.125 1.125 17.125 0 16 C-0.26352359 13.49359781 -0.46821071 11.0132401 -0.625 8.5 C-0.6765625 7.79746094 -0.728125 7.09492187 -0.78125 6.37109375 C-0.89838401 4.58307759 -0.95396301 2.79125732 -1 1 C-0.67 0.67 -0.34 0.34 0 0 Z " fill="#F6D666" transform="translate(92,80)"/>
<path d="M0 0 C0.33 1.32 0.66 2.64 1 4 C1.78375 4.144375 2.5675 4.28875 3.375 4.4375 C6 5 6 5 8 6 C7.34 7.98 6.68 9.96 6 12 C5.67 12 5.34 12 5 12 C4.67 10.35 4.34 8.7 4 7 C2.68 7.33 1.36 7.66 0 8 C-1.125 5.6875 -1.125 5.6875 -2 3 C-1.34 2.01 -0.68 1.02 0 0 Z " fill="#C55858" transform="translate(13,50)"/>
<path d="M0 0 C5.19822672 1.36144033 8.09543873 3.46730171 12 7 C11.34 7.66 10.68 8.32 10 9 C4.31298905 7.51643192 4.31298905 7.51643192 2.75 4.9375 C2.37875 3.9784375 2.37875 3.9784375 2 3 C1.34 2.67 0.68 2.34 0 2 C0 1.34 0 0.68 0 0 Z " fill="#BF5256" transform="translate(110,33)"/>
<path d="M0 0 C0.66 0 1.32 0 2 0 C2.99 1.98 3.98 3.96 5 6 C4.34 6.66 3.68 7.32 3 8 C2.01 8 1.02 8 0 8 C0 7.34 0 6.68 0 6 C-0.99 5.67 -1.98 5.34 -3 5 C-2 2 -2 2 0 0 Z " fill="#BD2427" transform="translate(123,22)"/>
<path d="M0 0 C0.66 0.99 1.32 1.98 2 3 C2.99 3 3.98 3 5 3 C0.53846154 9.92307692 0.53846154 9.92307692 -2 12 C-2.66 12 -3.32 12 -4 12 C-2.66666667 8 -1.33333333 4 0 0 Z " fill="#C1494C" transform="translate(147,108)"/>
<path d="M0 0 C0.66 0 1.32 0 2 0 C2 0.99 2 1.98 2 3 C2.99 3 3.98 3 5 3 C6.32 5.31 7.64 7.62 9 10 C6 10 6 10 4.17578125 8.46875 C3.56089844 7.8190625 2.94601563 7.169375 2.3125 6.5 C1.68988281 5.8503125 1.06726562 5.200625 0.42578125 4.53125 C-0.04472656 4.0259375 -0.51523437 3.520625 -1 3 C-0.67 2.01 -0.34 1.02 0 0 Z " fill="#F3D152" transform="translate(60,60)"/>
<path d="M0 0 C5.28 0.33 10.56 0.66 16 1 C16.66 2.65 17.32 4.3 18 6 C16.93072266 5.58427734 16.93072266 5.58427734 15.83984375 5.16015625 C10.52688947 3.15081553 5.66580592 1.50362719 0 1 C0 0.67 0 0.34 0 0 Z " fill="#BD5C5E" transform="translate(90,36)"/>
<path d="M0 0 C1.98 0.99 3.96 1.98 6 3 C6.33 2.34 6.66 1.68 7 1 C7 7.27 7 13.54 7 20 C6.67 20 6.34 20 6 20 C5.67 15.05 5.34 10.1 5 5 C3.35 4.67 1.7 4.34 0 4 C0 2.68 0 1.36 0 0 Z " fill="#F8DC64" transform="translate(66,75)"/>
<path d="M0 0 C2.3125 1 2.3125 1 3.625 3.0625 C3.9653125 4.0215625 3.9653125 4.0215625 4.3125 5 C3.260625 4.979375 2.20875 4.95875 1.125 4.9375 C-2.01454904 4.98896802 -4.65633396 5.26517187 -7.6875 6 C-7.6875 4 -7.6875 4 -5.5 1.8125 C-2.6875 0 -2.6875 0 0 0 Z " fill="#EDCD50" transform="translate(53.6875,63)"/>
<path d="M0 0 C2.97 0.495 2.97 0.495 6 1 C6 1.99 6 2.98 6 4 C7.32 3.67 8.64 3.34 10 3 C10.33 4.65 10.66 6.3 11 8 C7.24026115 8 6.54322371 7.03457593 3.8125 4.5625 C3.09707031 3.92441406 2.38164062 3.28632813 1.64453125 2.62890625 C1.10183594 2.09136719 0.55914063 1.55382812 0 1 C0 0.67 0 0.34 0 0 Z " fill="#BF5E61" transform="translate(25,141)"/>
<path d="M0 0 C0.33 0.99 0.66 1.98 1 3 C0.28972656 3.55429688 -0.42054687 4.10859375 -1.15234375 4.6796875 C-2.07144531 5.40414062 -2.99054688 6.12859375 -3.9375 6.875 C-4.85402344 7.59429687 -5.77054688 8.31359375 -6.71484375 9.0546875 C-9.06009485 10.79420836 -9.06009485 10.79420836 -10 13 C-11.65 12.67 -13.3 12.34 -15 12 C-14.01 11.34 -13.02 10.68 -12 10 C-10.00265128 8.4907098 -8.01803988 6.96573401 -6.03515625 5.4375 C-4.08741469 4.06174397 -2.15850157 3.00440341 0 2 C0 1.34 0 0.68 0 0 Z " fill="#B45856" transform="translate(118,122)"/>
<path d="M0 0 C1.32 0.33 2.64 0.66 4 1 C2.38113585 2.67262717 0.7547271 4.33795537 -0.875 6 C-1.77992187 6.928125 -2.68484375 7.85625 -3.6171875 8.8125 C-6 11 -6 11 -8 11 C-8 10.01 -8 9.02 -8 8 C-7.34 8 -6.68 8 -6 8 C-6 7.34 -6 6.68 -6 6 C-5.01 6 -4.02 6 -3 6 C-3 5.34 -3 4.68 -3 4 C-2.34 3.67 -1.68 3.34 -1 3 C-0.67 2.01 -0.34 1.02 0 0 Z " fill="#F4D461" transform="translate(65,97)"/>
<path d="M0 0 C0.66 0.66 1.32 1.32 2 2 C1.67 2.66 1.34 3.32 1 4 C0.34 4 -0.32 4 -1 4 C-1 4.66 -1 5.32 -1 6 C-1.66 6 -2.32 6 -3 6 C-3 6.66 -3 7.32 -3 8 C-4.32 8 -5.64 8 -7 8 C-6.67 6.68 -6.34 5.36 -6 4 C-5.360625 3.87625 -4.72125 3.7525 -4.0625 3.625 C-3.0415625 3.315625 -3.0415625 3.315625 -2 3 C-1.67 2.34 -1.34 1.68 -1 1 C-0.67 0.67 -0.34 0.34 0 0 Z " fill="#AE4C18" transform="translate(44,87)"/>
<path d="M0 0 C1.9375 0.8125 1.9375 0.8125 4 2 C4.33 2.99 4.66 3.98 5 5 C3.63875 4.938125 3.63875 4.938125 2.25 4.875 C-0.8782046 4.99531556 -2.38614006 5.3914708 -5 7 C-3.75023244 3.34683329 -3.32901247 2.21934164 0 0 Z " fill="#F2C741" transform="translate(92,44)"/>
<path d="M0 0 C1.12894876 0.93274109 2.25300876 1.87140122 3.375 2.8125 C4.00148438 3.33457031 4.62796875 3.85664062 5.2734375 4.39453125 C7 6 7 6 9 9 C5.23840019 8.47755558 2.67808998 7.7772785 0 5 C-0.25 2.3125 -0.25 2.3125 0 0 Z " fill="#C15E5F" transform="translate(41,120)"/>
<path d="M0 0 C0.66 2.64 1.32 5.28 2 8 C1.01 7.67 0.02 7.34 -1 7 C-1.6875 4.9375 -1.6875 4.9375 -2 3 C-2.763125 3.680625 -3.52625 4.36125 -4.3125 5.0625 C-5.199375 5.701875 -6.08625 6.34125 -7 7 C-7.99 6.67 -8.98 6.34 -10 6 C-2.6 0 -2.6 0 0 0 Z " fill="#FAC614" transform="translate(75,45)"/>
<path d="M0 0 C1.31872662 0.39651917 2.62997101 0.81798691 3.9375 1.25 C4.66839844 1.48203125 5.39929688 1.7140625 6.15234375 1.953125 C8 3 8 3 8.75390625 5.109375 C8.83511719 5.73328125 8.91632813 6.3571875 9 7 C4.71193127 6.52354792 2.73352513 5.34097516 0 2 C0 1.34 0 0.68 0 0 Z " fill="#B6474A" transform="translate(115,17)"/>
<path d="M0 0 C2.17692568 4.20872298 3.12422287 7.43483879 3.0625 12.1875 C3.05347656 13.08855469 3.04445312 13.98960938 3.03515625 14.91796875 C3.02355469 15.60503906 3.01195312 16.29210937 3 17 C0.69327905 13.53991858 0.51865994 11.07518521 0 7 C-0.33 6.34 -0.66 5.68 -1 5 C-0.72057545 3.32345271 -0.39171753 1.65391846 0 0 Z " fill="#B04A4D" transform="translate(156,63)"/>
<path d="M0 0 C0.33 1.32 0.66 2.64 1 4 C0.01 3.67 -0.98 3.34 -2 3 C-2 3.66 -2 4.32 -2 5 C-4.64 5.66 -7.28 6.32 -10 7 C-4.84210526 0 -4.84210526 0 0 0 Z " fill="#F3C735" transform="translate(113,64)"/>
<path d="M0 0 C1.485 0.99 1.485 0.99 3 2 C3 2.66 3 3.32 3 4 C3.99 4 4.98 4 6 4 C6 4.66 6 5.32 6 6 C4.02 6.33 2.04 6.66 0 7 C-0.93423645 3.98968256 -1.04449911 3.13349732 0 0 Z " fill="#AD3B3F" transform="translate(35,53)"/>
<path d="M0 0 C0.66 0 1.32 0 2 0 C6 4.35294118 6 4.35294118 6 8 C5.01 7.67 4.02 7.34 3 7 C2.01 7.33 1.02 7.66 0 8 C0 5.36 0 2.72 0 0 Z " fill="#F6CB39" transform="translate(97,49)"/>
<path d="M0 0 C1.32 0 2.64 0 4 0 C2.50958227 3.79379058 0.30937488 5.68343758 -3 8 C-3.66 8 -4.32 8 -5 8 C-5.33 7.01 -5.66 6.02 -6 5 C-4.02 4.67 -2.04 4.34 0 4 C0 2.68 0 1.36 0 0 Z " fill="#B5484F" transform="translate(132,143)"/>
<path d="M0 0 C2.31 0.66 4.62 1.32 7 2 C7 2.66 7 3.32 7 4 C7.66 4.33 8.32 4.66 9 5 C9 5.99 9 6.98 9 8 C4.7257442 6.4169423 2.73468206 3.49431596 0 0 Z " fill="#BB5153" transform="translate(36,128)"/>
<path d="M0 0 C1.32 0 2.64 0 4 0 C4 0.66 4 1.32 4 2 C4.66 2 5.32 2 6 2 C7.38938077 3.96147874 8.7260411 5.96166576 10 8 C8.35 7.67 6.7 7.34 5 7 C4.34 5.02 3.68 3.04 3 1 C1.35 1.66 -0.3 2.32 -2 3 C-1.34 2.01 -0.68 1.02 0 0 Z " fill="#F4D776" transform="translate(110,63)"/>
<path d="M0 0 C2.05407451 4.10814902 0.35379041 7.86341821 -1 12 C-1.66 12.66 -2.32 13.32 -3 14 C-2.88570603 12.22844346 -2.75816963 10.45773771 -2.625 8.6875 C-2.55539062 7.70136719 -2.48578125 6.71523438 -2.4140625 5.69921875 C-2 3 -2 3 0 0 Z " fill="#B22C2D" transform="translate(12,54)"/>
<path d="M0 0 C4.95 0.99 4.95 0.99 10 2 C10 3.32 10 4.64 10 6 C5.56909529 4.79157144 3.01887244 3.48331435 0 0 Z " fill="#BB444B" transform="translate(103,20)"/>
<path d="M0 0 C0.66 0.66 1.32 1.32 2 2 C-1.465 3.485 -1.465 3.485 -5 5 C-5.33 4.01 -5.66 3.02 -6 2 C-6.66 1.34 -7.32 0.68 -8 0 C-4.96083486 -0.97687451 -3.01586454 -1.105817 0 0 Z " fill="#C34346" transform="translate(96,138)"/>
<path d="M0 0 C2.475 0.495 2.475 0.495 5 1 C5 1.66 5 2.32 5 3 C7.475 3.99 7.475 3.99 10 5 C9.67 5.66 9.34 6.32 9 7 C8.34 7 7.68 7 7 7 C7 6.34 7 5.68 7 5 C6.401875 4.855625 5.80375 4.71125 5.1875 4.5625 C3.43849596 4.1127561 1.71322977 3.57107659 0 3 C0 2.01 0 1.02 0 0 Z " fill="#BD5960" transform="translate(33,138)"/>
<path d="M0 0 C0.66 0.33 1.32 0.66 2 1 C1.67 5.29 1.34 9.58 1 14 C0.67 14 0.34 14 0 14 C-0.19393875 11.85473901 -0.37998676 9.70876323 -0.5625 7.5625 C-0.71912109 5.77005859 -0.71912109 5.77005859 -0.87890625 3.94140625 C-0.91886719 2.97074219 -0.95882812 2.00007813 -1 1 C-0.67 0.67 -0.34 0.34 0 0 Z " fill="#BE555A" transform="translate(158,92)"/>
<path d="M0 0 C1.890625 0.25390625 1.890625 0.25390625 4 1 C5.046875 2.77734375 5.046875 2.77734375 5.75 4.9375 C5.99234375 5.64777344 6.2346875 6.35804687 6.484375 7.08984375 C7 9 7 9 7 11 C6.34 11 5.68 11 5 11 C5 9.35 5 7.7 5 6 C4.01 6 3.02 6 2 6 C1.34 5.34 0.68 4.68 0 4 C0 2.68 0 1.36 0 0 Z " fill="#BB5054" transform="translate(149,52)"/>
<path d="M0 0 C0 1.66666667 0 3.33333333 0 5 C-2.97 4.505 -2.97 4.505 -6 4 C-6.33 3.01 -6.66 2.02 -7 1 C-4.53721199 -0.231394 -2.7204945 -0.07159196 0 0 Z " fill="#C42626" transform="translate(69,31)"/>
<path d="M0 0 C0.99 0 1.98 0 3 0 C2.55090939 1.48199902 2.09043436 2.96055236 1.625 4.4375 C1.36976563 5.26121094 1.11453125 6.08492188 0.8515625 6.93359375 C0 9 0 9 -2 10 C-2.17942163 6.05272412 -2.09350689 3.4019487 0 0 Z " fill="#B54E50" transform="translate(153,113)"/>
<path d="M0 0 C0.66 0 1.32 0 2 0 C2.21278058 4.46839215 1.59138085 7.82262526 0 12 C-2 10 -2 10 -2.125 7.375 C-2.08375 6.59125 -2.0425 5.8075 -2 5 C-1.34 5 -0.68 5 0 5 C0 3.35 0 1.7 0 0 Z " fill="#BC3031" transform="translate(145,47)"/>
<path d="M0 0 C0.33 0.99 0.66 1.98 1 3 C1.66 3.33 2.32 3.66 3 4 C-0.75 7 -0.75 7 -3 7 C-3.33 7.66 -3.66 8.32 -4 9 C-4.66 7.35 -5.32 5.7 -6 4 C-4.02 4 -2.04 4 0 4 C0 2.68 0 1.36 0 0 Z " fill="#BB4542" transform="translate(52,41)"/>
<path d="M0 0 C2.64 1.98 5.28 3.96 8 6 C7.67 6.66 7.34 7.32 7 8 C4.625 7.375 4.625 7.375 2 6 C0.6875 2.875 0.6875 2.875 0 0 Z " fill="#BD585A" transform="translate(130,26)"/>
<path d="M0 0 C3.3 0 6.6 0 10 0 C10 0.99 10 1.98 10 3 C8.5199159 2.88637738 7.04089926 2.75877092 5.5625 2.625 C4.73878906 2.55539062 3.91507812 2.48578125 3.06640625 2.4140625 C2.38449219 2.27742187 1.70257813 2.14078125 1 2 C0.67 1.34 0.34 0.68 0 0 Z " fill="#B74C4D" transform="translate(87,10)"/>
<path d="M0 0 C1.32 0.33 2.64 0.66 4 1 C-0.455 3.97 -0.455 3.97 -5 7 C-5.66 6.67 -6.32 6.34 -7 6 C-7 5.34 -7 4.68 -7 4 C-5.68 4 -4.36 4 -3 4 C-3 3.34 -3 2.68 -3 2 C-2.01 2 -1.02 2 0 2 C0 1.34 0 0.68 0 0 Z " fill="#BA5D5F" transform="translate(123,151)"/>
<path d="M0 0 C0.66 0 1.32 0 2 0 C1.46939601 4.51013391 -0.30886117 7.38378219 -3 11 C-3.33 11 -3.66 11 -4 11 C-4 9.35 -4 7.7 -4 6 C-3.34 6 -2.68 6 -2 6 C-2 5.01 -2 4.02 -2 3 C-1.34 3 -0.68 3 0 3 C0 2.01 0 1.02 0 0 Z " fill="#BA5B5F" transform="translate(149,123)"/>
<path d="M0 0 C5.875 4.625 5.875 4.625 7 8 C5.02 7.34 3.04 6.68 1 6 C0.67 4.02 0.34 2.04 0 0 Z " fill="#F3D353" transform="translate(98,108)"/>
<path d="M0 0 C1.32 0.33 2.64 0.66 4 1 C3.3125 3.4375 3.3125 3.4375 2 6 C-0.625 6.8125 -0.625 6.8125 -3 7 C-2.01 4.69 -1.02 2.38 0 0 Z " fill="#C32729" transform="translate(152,102)"/>
<path d="M0 0 C0.33 0.99 0.66 1.98 1 3 C0.67 3.66 0.34 4.32 0 5 C-0.66 5 -1.32 5 -2 5 C-1.67 5.99 -1.34 6.98 -1 8 C-2 9 -2 9 -4.5625 9.0625 C-5.366875 9.041875 -6.17125 9.02125 -7 9 C-6.01 8.67 -5.02 8.34 -4 8 C-3.67 6.35 -3.34 4.7 -3 3 C-2.34 3 -1.68 3 -1 3 C-0.67 2.01 -0.34 1.02 0 0 Z " fill="#EBAB1B" transform="translate(87,47)"/>
<path d="M0 0 C0.99 0.33 1.98 0.66 3 1 C1.71034824 2.37562854 0.37310707 3.70766393 -1 5 C-1.66 5 -2.32 5 -3 5 C-3.33 6.32 -3.66 7.64 -4 9 C-4.8125 7.3125 -4.8125 7.3125 -5 5 C-2.5625 2.25 -2.5625 2.25 0 0 Z " fill="#EFCF59" transform="translate(62,52)"/>
<path d="M0 0 C3.08089673 2.77280706 4.68775452 5.06326356 6 9 C4.68 9.33 3.36 9.66 2 10 C2 8.35 2 6.7 2 5 C1.34 4.67 0.68 4.34 0 4 C0 2.68 0 1.36 0 0 Z " fill="#BD595B" transform="translate(145,42)"/>
<path d="M0 0 C1 3 1 3 0.3125 5.625 C-1 8 -1 8 -3.125 8.8125 C-3.74375 8.874375 -4.3625 8.93625 -5 9 C-3.7508258 5.54074837 -2.32472205 2.85306797 0 0 Z " fill="#BE5A5C" transform="translate(19,41)"/>
<path d="M0 0 C2.64 0 5.28 0 8 0 C8 1.65 8 3.3 8 5 C4.62496331 3.8141763 2.35277269 2.72426311 0 0 Z " fill="#B64041" transform="translate(108,42)"/>
<path d="M0 0 C0 0.66 0 1.32 0 2 C-0.66 2 -1.32 2 -2 2 C-2 2.66 -2 3.32 -2 4 C-3.65 4 -5.3 4 -7 4 C-6.6875 2.0625 -6.6875 2.0625 -6 0 C-3 -1 -3 -1 0 0 Z " fill="#C72325" transform="translate(124,148)"/>
<path d="M0 0 C0.66 0.33 1.32 0.66 2 1 C2 1.99 2 2.98 2 4 C2.66 4 3.32 4 4 4 C4.33 5.65 4.66 7.3 5 9 C3.02 7.35 1.04 5.7 -1 4 C-0.67 2.68 -0.34 1.36 0 0 Z " fill="#EFC854" transform="translate(39,95)"/>
<path d="M0 0 C0.66 0 1.32 0 2 0 C3.59138085 4.17737474 4.21278058 7.53160785 4 12 C3.34 12 2.68 12 2 12 C1.34 8.04 0.68 4.08 0 0 Z " fill="#AE4143" transform="translate(148,68)"/>
<path d="M0 0 C0.99 0.66 1.98 1.32 3 2 C2.69381595 5.67420866 2.24228216 6.78135513 -0.5625 9.3125 C-1.366875 9.869375 -2.17125 10.42625 -3 11 C-2.67 9.35 -2.34 7.7 -2 6 C-1.01 6 -0.02 6 1 6 C0.67 4.02 0.34 2.04 0 0 Z " fill="#F4D974" transform="translate(103,55)"/>
<path d="M0 0 C-0.33 0.99 -0.66 1.98 -1 3 C-2.32 3 -3.64 3 -5 3 C-5.33 3.66 -5.66 4.32 -6 5 C-6 4.34 -6 3.68 -6 3 C-7.32 2.67 -8.64 2.34 -10 2 C-8.71211992 1.46987262 -7.41953322 0.9511671 -6.125 0.4375 C-5.40570313 0.14746094 -4.68640625 -0.14257812 -3.9453125 -0.44140625 C-2 -1 -2 -1 0 0 Z " fill="#BE5253" transform="translate(59,14)"/>
<path d="M0 0 C0.8353125 0.556875 0.8353125 0.556875 1.6875 1.125 C0.6975 1.125 -0.2925 1.125 -1.3125 1.125 C-1.3125 1.785 -1.3125 2.445 -1.3125 3.125 C-4.2825 3.125 -7.2525 3.125 -10.3125 3.125 C-3.58836207 -1.35775862 -3.58836207 -1.35775862 0 0 Z " fill="#C05757" transform="translate(114.3125,149.875)"/>
<path d="M0 0 C0.98120464 3.05263664 0.98120464 4.94736336 0 8 C-2.2477975 5.94766315 -3.0022242 4.99332739 -4 2 C-2.68 1.34 -1.36 0.68 0 0 Z " fill="#BD2F31" transform="translate(137,136)"/>
<path d="M0 0 C0.33 0 0.66 0 1 0 C1.33 4.29 1.66 8.58 2 13 C-0.74423601 8.88364599 -1.20604121 6.94498905 -1 2 C-0.67 1.34 -0.34 0.68 0 0 Z " fill="#B3444A" transform="translate(8,104)"/>
<path d="M0 0 C0.33 1.32 0.66 2.64 1 4 C0.34 4 -0.32 4 -1 4 C-1.33 5.32 -1.66 6.64 -2 8 C-3.32 8.33 -4.64 8.66 -6 9 C-5.67 8.34 -5.34 7.68 -5 7 C-4.34 7 -3.68 7 -3 7 C-2.87625 6.21625 -2.7525 5.4325 -2.625 4.625 C-2 2 -2 2 0 0 Z " fill="#B2383A" transform="translate(122,118)"/>
<path d="M0 0 C1.9375 0.75 1.9375 0.75 4 2 C4.625 4.0625 4.625 4.0625 5 6 C5.66 6.33 6.32 6.66 7 7 C4 7 4 7 1.8125 5.1875 C0 3 0 3 0 0 Z " fill="#EFCA45" transform="translate(58,117)"/>
<path d="M0 0 C-1.39332574 3.36720387 -2.9789286 4.9859524 -6 7 C-6.66 6.67 -7.32 6.34 -8 6 C-3.38461538 0 -3.38461538 0 0 0 Z " fill="#F0C21A" transform="translate(49,68)"/>
<path d="M0 0 C0.99 0 1.98 0 3 0 C2.67 1.65 2.34 3.3 2 5 C0.68 4.67 -0.64 4.34 -2 4 C-2 3.34 -2 2.68 -2 2 C-1.34 2 -0.68 2 0 2 C0 1.34 0 0.68 0 0 Z " fill="#C52422" transform="translate(82,128)"/>
<path d="M0 0 C0.99 0.33 1.98 0.66 3 1 C3 1.66 3 2.32 3 3 C5.475 3.99 5.475 3.99 8 5 C7.67 5.66 7.34 6.32 7 7 C4.13302508 5.71480435 2.02392288 4.42870746 0 2 C0 1.34 0 0.68 0 0 Z " fill="#F6BF2D" transform="translate(118,90)"/>
<path d="M0 0 C1.98 0 3.96 0 6 0 C6.33 0.66 6.66 1.32 7 2 C6.34 2 5.68 2 5 2 C5 2.66 5 3.32 5 4 C3.0625 3.6875 3.0625 3.6875 1 3 C0.67 2.01 0.34 1.02 0 0 Z " fill="#B42428" transform="translate(70,28)"/>
<path d="M0 0 C2.31 0.33 4.62 0.66 7 1 C4.08235 2.9451 2.37462715 3.45276317 -1 4 C-0.67 2.68 -0.34 1.36 0 0 Z " fill="#B9474B" transform="translate(109,157)"/>
<path d="M0 0 C0 0.66 0 1.32 0 2 C-2.375 3.6875 -2.375 3.6875 -5 5 C-5.66 4.67 -6.32 4.34 -7 4 C-6.67 3.01 -6.34 2.02 -6 1 C-3 0 -3 0 0 0 Z " fill="#BF4F50" transform="translate(116,136)"/>
<path d="M0 0 C0.33 0.66 0.66 1.32 1 2 C1.99 2.33 2.98 2.66 4 3 C3.67 4.65 3.34 6.3 3 8 C1.5 6.8125 1.5 6.8125 0 5 C-0.1875 2.3125 -0.1875 2.3125 0 0 Z " fill="#B54C4A" transform="translate(75,129)"/>
<path d="M0 0 C1.2065625 0.0309375 1.2065625 0.0309375 2.4375 0.0625 C2.7675 0.7225 3.0975 1.3825 3.4375 2.0625 C2.014375 2.495625 2.014375 2.495625 0.5625 2.9375 C-2.61461578 3.83075109 -2.61461578 3.83075109 -4.5625 6.0625 C-3.48963568 0.08511307 -3.48963568 0.08511307 0 0 Z " fill="#AC3C1C" transform="translate(80.5625,124.9375)"/>
<path d="M0 0 C0.66 1.32 1.32 2.64 2 4 C0.68 5.32 -0.64 6.64 -2 8 C-2 6.02 -2 4.04 -2 2 C-1.34 2 -0.68 2 0 2 C0 1.34 0 0.68 0 0 Z " fill="#B94D53" transform="translate(129,119)"/>
<path d="M0 0 C2.97 0.495 2.97 0.495 6 1 C6.33 2.65 6.66 4.3 7 6 C6.34 6 5.68 6 5 6 C5 5.34 5 4.68 5 4 C4.360625 3.71125 3.72125 3.4225 3.0625 3.125 C1 2 1 2 0 0 Z " fill="#F6D55D" transform="translate(100,102)"/>
<path d="M0 0 C0.66 0 1.32 0 2 0 C2 0.66 2 1.32 2 2 C2.66 2 3.32 2 4 2 C3.67 3.98 3.34 5.96 3 8 C1.0549 5.08235 0.54723683 3.37462715 0 0 Z " fill="#BB5657" transform="translate(145,59)"/>
<path d="M0 0 C1.32 0.66 2.64 1.32 4 2 C4 3.32 4 4.64 4 6 C3.01 6 2.02 6 1 6 C-0.0625 4.125 -0.0625 4.125 -1 2 C-0.67 1.34 -0.34 0.68 0 0 Z " fill="#BE2626" transform="translate(37,51)"/>
<path d="M0 0 C1.65 0.33 3.3 0.66 5 1 C4.01 1.495 4.01 1.495 3 2 C3 2.99 3 3.98 3 5 C1.68 4.67 0.36 4.34 -1 4 C-0.67 2.68 -0.34 1.36 0 0 Z " fill="#C5242B" transform="translate(23,40)"/>
<path d="M0 0 C-0.33 0.99 -0.66 1.98 -1 3 C-1.99 3.33 -2.98 3.66 -4 4 C-4.33 4.66 -4.66 5.32 -5 6 C-5.66 6 -6.32 6 -7 6 C-6.75 4.125 -6.75 4.125 -6 2 C-3.85331506 0.61504198 -2.56128588 0 0 0 Z " fill="#BB5B55" transform="translate(60,31)"/>
<path d="M0 0 C0.66 0.33 1.32 0.66 2 1 C2 1.99 2 2.98 2 4 C0.25 4.6875 0.25 4.6875 -2 5 C-4.25 3.5625 -4.25 3.5625 -6 2 C-4.7934375 1.7834375 -4.7934375 1.7834375 -3.5625 1.5625 C-1.07896294 1.25864751 -1.07896294 1.25864751 0 0 Z " fill="#C35455" transform="translate(119,24)"/>
<path d="M0 0 C0.33 0.66 0.66 1.32 1 2 C0 4 0 4 -1.84765625 4.6328125 C-2.94400391 4.87644531 -2.94400391 4.87644531 -4.0625 5.125 C-4.79597656 5.29257812 -5.52945313 5.46015625 -6.28515625 5.6328125 C-6.85105469 5.75398438 -7.41695312 5.87515625 -8 6 C-5.51047079 3.33264727 -3.36591866 1.44253657 0 0 Z " fill="#B9585C" transform="translate(44,19)"/>
<path d="M0 0 C-0.99 1.485 -0.99 1.485 -2 3 C-3.32 3 -4.64 3 -6 3 C-6 2.01 -6 1.02 -6 0 C-3 -1 -3 -1 0 0 Z " fill="#C04347" transform="translate(97,17)"/>
<path d="M0 0 C1.32 0 2.64 0 4 0 C4 0.66 4 1.32 4 2 C3.34 2 2.68 2 2 2 C2 2.99 2 3.98 2 5 C0.68 4.67 -0.64 4.34 -2 4 C-1.34 2.68 -0.68 1.36 0 0 Z " fill="#BF2526" transform="translate(63,156)"/>
<path d="M0 0 C1.32 0 2.64 0 4 0 C4 1.32 4 2.64 4 4 C2.35 4 0.7 4 -1 4 C-0.67 2.68 -0.34 1.36 0 0 Z " fill="#C42324" transform="translate(46,151)"/>
<path d="M0 0 C0.66 0 1.32 0 2 0 C2 0.66 2 1.32 2 2 C2.99 1.67 3.98 1.34 5 1 C5 2.32 5 3.64 5 5 C3.35 4.67 1.7 4.34 0 4 C0 2.68 0 1.36 0 0 Z " fill="#B4272A" transform="translate(15,124)"/>
<path d="M0 0 C0.99 0 1.98 0 3 0 C3.33 1.98 3.66 3.96 4 6 C2.68 5.67 1.36 5.34 0 5 C0 3.35 0 1.7 0 0 Z " fill="#BD2623" transform="translate(38,84)"/>
<path d="M0 0 C0.33 0.66 0.66 1.32 1 2 C-0.70625501 4.78388975 -1.47626739 5.85384206 -4.6875 6.75 C-5.8321875 6.87375 -5.8321875 6.87375 -7 7 C-4.66666667 4.66666667 -2.33333333 2.33333333 0 0 Z " fill="#F2D465" transform="translate(102,71)"/>
<path d="M0 0 C2.97 0.495 2.97 0.495 6 1 C6 2.98 6 4.96 6 7 C5.34 6.67 4.68 6.34 4 6 C4 5.01 4 4.02 4 3 C2.68 2.34 1.36 1.68 0 1 C0 0.67 0 0.34 0 0 Z " fill="#B43B36" transform="translate(82,40)"/>
<path d="M0 0 C1.32 0 2.64 0 4 0 C4 0.66 4 1.32 4 2 C4.66 2.33 5.32 2.66 6 3 C5.34 3.66 4.68 4.32 4 5 C2 3.625 2 3.625 0 2 C0 1.34 0 0.68 0 0 Z " fill="#B74D50" transform="translate(119,28)"/>
<path d="M0 0 C0.99 0.33 1.98 0.66 3 1 C2.34 1 1.68 1 1 1 C0.67 2.32 0.34 3.64 0 5 C-0.99 5 -1.98 5 -3 5 C-3 4.34 -3 3.68 -3 3 C-3.66 2.67 -4.32 2.34 -5 2 C-3.35 2 -1.7 2 0 2 C0 1.34 0 0.68 0 0 Z " fill="#C03534" transform="translate(97,11)"/>
</svg>
